<svg width="215" height="49" viewBox="0 0 215 49" fill="none" xmlns="http://www.w3.org/2000/svg">
<g clip-path="url(#clip0_85_293)">
<mask id="mask0_85_293" style="mask-type:luminance" maskUnits="userSpaceOnUse" x="0" y="0" width="215" height="49">
<path d="M0 0H215V49H0V0Z" fill="white"/>
</mask>
<g mask="url(#mask0_85_293)">
<path d="M188.376 27.6679C188.367 26.1572 188.687 24.6626 189.314 23.2887C189.942 21.9227 190.854 20.7067 191.988 19.7219C193.218 18.6573 194.64 17.8381 196.177 17.3084C197.809 16.7215 199.652 16.4241 201.694 16.4241C203.736 16.4241 205.581 16.7227 207.222 17.3084C208.758 17.843 210.18 18.6622 211.414 19.7231C212.543 20.7111 213.451 21.9265 214.079 23.2898C214.689 24.6666 215.004 26.1563 215.004 27.6628C215.004 29.1692 214.689 30.659 214.079 32.0357C213.454 33.4044 212.546 34.6242 211.414 35.6139C210.18 36.6701 208.758 37.4838 207.222 38.0126C205.581 38.5995 203.736 38.8957 201.694 38.8957C199.652 38.8957 197.809 38.5972 196.177 38.0126C194.544 37.4269 193.133 36.6224 191.985 35.6127C190.847 34.6263 189.935 33.4059 189.31 32.0346C188.685 30.6646 188.364 29.1745 188.372 27.6679H188.376ZM194.018 27.6679C194.012 28.518 194.188 29.3601 194.533 30.135C194.882 30.9236 195.396 31.6278 196.039 32.1953C196.745 32.8188 197.564 33.3012 198.451 33.6163C200.553 34.3131 202.823 34.3131 204.926 33.6163C205.813 33.3008 206.631 32.8185 207.337 32.1953C208.296 31.337 208.958 30.1957 209.227 28.9362C209.499 27.6736 209.366 26.3574 208.848 25.1746C208.499 24.3848 207.985 23.6785 207.342 23.1029C206.633 22.4866 205.815 22.0082 204.93 21.6922C202.828 20.9954 200.558 20.9954 198.455 21.6922C197.571 22.0079 196.754 22.4864 196.045 23.1029C195.402 23.6751 194.889 24.3786 194.539 25.1659C194.19 25.9533 194.014 26.8064 194.021 27.6679H194.018ZM160.844 27.7215C160.829 26.1905 161.123 24.6723 161.708 23.2579C162.279 21.8913 163.142 20.6662 164.235 19.6684C165.341 18.6576 166.689 17.8633 168.299 17.2879C169.909 16.7124 171.733 16.423 173.786 16.423C174.687 16.423 175.587 16.4765 176.482 16.5825C177.364 16.6919 178.238 16.8492 179.104 17.0531C179.907 17.2457 180.697 17.4884 181.47 17.779C182.137 18.0196 182.778 18.3233 183.387 18.6861L180.913 22.7884C179.839 22.2825 178.721 21.8748 177.574 21.5703C176.533 21.3163 175.465 21.1893 174.393 21.1919C173.268 21.1736 172.148 21.3391 171.076 21.6819C170.169 21.9736 169.324 22.4336 168.586 23.038C167.92 23.6015 167.388 24.3059 167.027 25.1005C166.666 25.9139 166.483 26.795 166.49 27.685C166.48 28.5798 166.678 29.4645 167.069 30.2695C167.446 31.0671 167.997 31.7691 168.681 32.3195C169.431 32.9166 170.285 33.369 171.197 33.6539C172.262 33.9955 173.375 34.1614 174.494 34.145C175.769 34.1531 177.037 33.9589 178.252 33.5696C179.409 33.2021 180.516 32.693 181.549 32.054L184.039 36.154C182.637 37.0041 181.13 37.6651 179.556 38.1197C178.675 38.3752 177.778 38.5712 176.871 38.7066C175.905 38.8456 174.93 38.914 173.954 38.9094C171.911 38.9094 170.08 38.6291 168.458 38.0662C166.835 37.5044 165.462 36.7215 164.34 35.7176C163.232 34.7421 162.351 33.5351 161.76 32.1816C161.148 30.7782 160.839 29.2609 160.854 27.7294M129.824 27.5927C129.818 26.1353 130.123 24.6936 130.719 23.3639C131.318 22.0144 132.189 20.8035 133.277 19.8074C134.383 18.7716 135.751 17.95 137.363 17.3414C138.974 16.7329 140.817 16.423 142.87 16.423C144.925 16.423 146.757 16.7329 148.4 17.3517C149.944 17.9155 151.361 18.7791 152.57 19.8929C153.7 20.9653 154.591 22.2646 155.186 23.7057C155.802 25.1928 156.114 26.7916 156.101 28.404C156.101 28.608 156.101 28.8314 156.091 29.0661C156.084 29.2876 156.07 29.5088 156.049 29.7293H135.815C136.054 30.3986 136.437 31.0074 136.936 31.5127C137.495 32.0846 138.147 32.5577 138.864 32.912C139.714 33.3329 140.617 33.6379 141.548 33.8191C142.659 34.0413 143.788 34.1496 144.919 34.1382C146.158 34.1401 147.393 34.0079 148.604 33.7439C149.791 33.4896 150.959 33.1545 152.101 32.7411L153.923 36.8947C153.229 37.2252 152.519 37.5169 151.796 37.771C151.06 38.0324 150.307 38.2433 149.542 38.4023C148.762 38.5619 147.952 38.6906 147.099 38.7807C146.245 38.8718 145.34 38.9071 144.392 38.9071C141.992 38.9071 139.885 38.6131 138.074 38.024C136.262 37.4337 134.742 36.6338 133.514 35.6241C132.33 34.6572 131.386 33.4295 130.754 32.0369C130.131 30.643 129.815 29.1312 129.828 27.6041L129.824 27.5927ZM150.416 25.4903C150.224 24.8775 149.92 24.3057 149.521 23.8037C149.093 23.2682 148.581 22.8063 148.004 22.4363C147.353 22.033 146.648 21.7267 145.909 21.527C145.05 21.2973 144.164 21.1862 143.275 21.1965C142.337 21.186 141.402 21.3049 140.496 21.5497C139.724 21.7554 138.986 22.072 138.305 22.4899C137.709 22.8495 137.179 23.3081 136.737 23.8459C136.333 24.3322 136.023 24.8884 135.82 25.4868L150.416 25.4903ZM123.698 7.99612H118.327V38.5174H123.698V7.99612ZM86.0546 31.6722C86.0421 30.6809 86.2734 29.7017 86.728 28.8211C87.2129 27.9312 87.9062 27.1726 88.7484 26.6104C89.6436 25.9916 90.7505 25.5108 92.0871 25.1689C93.4249 24.8282 94.9834 24.6641 96.7625 24.6641C98.154 24.6693 99.5437 24.766 100.923 24.9535C102.441 25.1666 103.946 25.4697 105.43 25.8606C105.369 25.1847 105.156 24.5314 104.807 23.9496C104.437 23.3484 103.942 22.8345 103.355 22.4431C102.662 21.9948 101.9 21.663 101.1 21.4609C100.126 21.2139 99.1242 21.0952 98.1196 21.1076C97.4553 21.1099 96.7898 21.1452 96.1289 21.2159C95.4008 21.2899 94.6432 21.4073 93.8742 21.5463C93.1007 21.6922 92.334 21.8768 91.5775 22.1024C90.8529 22.3132 90.1453 22.581 89.4616 22.9024L87.8394 18.4297C88.695 18.1235 89.563 17.8532 90.4411 17.6195C91.3811 17.3742 92.3297 17.1633 93.285 16.987C94.2587 16.8047 95.2222 16.6668 96.1903 16.5711C97.1208 16.4752 98.0555 16.4254 98.991 16.4218C103.004 16.4218 105.973 17.4577 107.921 19.5293C109.871 21.6022 110.839 24.7826 110.839 29.065V38.5174H105.467V36.4776C104.88 36.8263 104.273 37.1374 103.646 37.4075C102.946 37.7152 102.226 37.975 101.491 38.1824C100.675 38.4137 99.8419 38.5892 99.0001 38.7054C98.0627 38.8365 97.1163 38.9003 96.1687 38.898C94.5044 38.898 93.0404 38.7157 91.7777 38.3419C90.5139 37.9682 89.4616 37.4668 88.6175 36.8149C87.8091 36.2138 87.1529 35.4308 86.7019 34.529C86.2646 33.6397 86.041 32.6602 86.0489 31.6688L86.0546 31.6722ZM91.7197 31.4888C91.722 31.8443 91.8164 32.1919 91.9927 32.4984C92.1986 32.8608 92.4978 33.1593 92.8572 33.3644C93.3322 33.6507 93.8511 33.8563 94.393 33.9729C95.1318 34.1449 95.8892 34.2242 96.6476 34.2088C97.569 34.2123 98.4905 34.1279 99.396 33.9559C100.234 33.7963 101.059 33.5684 101.86 33.2721C102.576 33.0067 103.267 32.6775 103.925 32.2887C104.48 31.9729 104.996 31.5914 105.46 31.1526V30.192C104.657 29.968 103.846 29.7718 103.029 29.604C102.229 29.4444 101.448 29.3259 100.724 29.2256C100.038 29.1311 99.3495 29.0665 98.6588 29.0319C98.0906 29.0004 97.5216 28.983 96.9525 28.9795C96.1174 28.9638 95.2828 29.0318 94.4612 29.1823C93.9015 29.2824 93.3591 29.4624 92.8504 29.7168C92.4893 29.8946 92.1868 30.1727 91.979 30.5179C91.8104 30.8137 91.7218 31.1481 91.7197 31.4888ZM53.4849 9.76809H63.8789C66.9219 9.76809 69.5553 10.0986 71.7986 10.7595C74.0419 11.4227 75.8836 12.3731 77.359 13.6015C78.8041 14.8049 79.9319 16.3455 80.6432 18.0878C81.3599 19.8484 81.7182 21.8266 81.7182 24.0225C81.7372 26 81.3721 27.9622 80.6432 29.8C79.9324 31.5715 78.8141 33.15 77.3795 34.4071C75.9155 35.6982 74.0726 36.7124 71.8293 37.4383C69.5872 38.163 66.9549 38.5379 63.921 38.5379L53.4849 38.5151V9.76923V9.76809ZM65.3008 33.4773C67.0163 33.4773 68.5224 33.2528 69.8181 32.8049C71.0227 32.4098 72.1273 31.7574 73.0556 30.8928C73.926 30.0638 74.5929 29.0443 75.0043 27.914C75.4519 26.6675 75.673 25.3506 75.6572 24.026C75.6735 22.7225 75.4526 21.427 75.0054 20.2028C74.5919 19.101 73.9237 18.1131 73.0556 17.3198C72.1934 16.529 71.1184 15.9204 69.8181 15.4817C68.519 15.0441 67.0163 14.8424 65.3008 14.8424H59.2353V33.4773H65.3008ZM8.26897 43.9268H39.5919C40.8596 43.205 42.0691 42.3851 43.2093 41.4745H4.65833C5.79817 42.3861 7.00399 43.2066 8.26897 43.9268ZM24.1232 35.484L34.2999 21.4176L24.0834 2.92291H25.4963V0H19.16V2.92291H20.4796V35.4851H0C0.623284 36.5011 1.30904 37.4773 2.05331 38.408H45.8064C46.5537 37.4778 47.2422 36.5016 47.8676 35.4851L24.1232 35.484ZM23.3633 32.2078V6.61044L31.382 21.1338L23.3633 32.2078ZM23.931 48.984C27.4654 48.9882 30.9681 48.3164 34.251 47.0047H13.611C16.8939 48.3163 20.3966 48.9882 23.931 48.984ZM130.399 6.1797C130.409 6.30846 130.434 6.43495 130.472 6.55802C130.52 6.7187 130.602 6.8657 130.713 6.99105C130.859 7.14716 131.036 7.27023 131.234 7.34886C131.522 7.45826 131.829 7.5084 132.136 7.49586C132.532 7.51523 132.926 7.42065 133.27 7.22237C133.554 7.04005 133.697 6.75288 133.697 6.3586C133.711 6.08024 133.614 5.80777 133.427 5.60081C133.232 5.40298 133.003 5.24168 132.751 5.12449C132.464 4.98904 132.169 4.87218 131.868 4.77465C131.563 4.67736 131.267 4.55264 130.985 4.40202C130.725 4.26711 130.495 4.08154 130.307 3.85619C130.119 3.6089 130.024 3.30302 130.039 2.99242C130.033 2.74906 130.085 2.50786 130.192 2.28926C130.299 2.07066 130.457 1.8811 130.653 1.73665C130.852 1.59307 131.074 1.48595 131.308 1.41872C131.813 1.27675 132.346 1.27243 132.853 1.40619C133.083 1.46316 133.303 1.55888 133.504 1.68765C133.69 1.80616 133.852 1.96114 133.979 2.14347C134.108 2.32123 134.193 2.52863 134.228 2.74742H133.619C133.604 2.5881 133.553 2.43426 133.47 2.29788C133.386 2.1615 133.273 2.04626 133.137 1.96114C132.836 1.78543 132.491 1.6978 132.142 1.70816C131.931 1.70449 131.721 1.73332 131.519 1.79363C131.356 1.84336 131.203 1.92042 131.066 2.02153C130.95 2.10656 130.855 2.21808 130.791 2.34688C130.726 2.47568 130.693 2.61806 130.694 2.76223C130.689 2.88174 130.711 3.00084 130.759 3.11032C130.807 3.21979 130.88 3.3167 130.971 3.39353C131.182 3.56674 131.417 3.70805 131.669 3.81174C131.946 3.93367 132.249 4.04877 132.577 4.15816C132.89 4.26072 133.194 4.39746 133.483 4.56156C133.752 4.71426 133.988 4.91823 134.18 5.16209C134.374 5.42874 134.473 5.75465 134.459 6.08512C134.461 6.34265 134.407 6.59791 134.297 6.83037C134.19 7.0538 134.033 7.24984 133.839 7.40356C133.626 7.56921 133.383 7.69259 133.124 7.76707C132.819 7.85492 132.502 7.89716 132.185 7.89242C131.867 7.89406 131.549 7.85189 131.242 7.76707C130.975 7.69413 130.723 7.57704 130.495 7.42065C130.291 7.27953 130.122 7.09508 129.998 6.88051C129.873 6.66416 129.803 6.42037 129.794 6.17058L130.399 6.1797ZM137.428 3.1417C137.775 3.1246 138.122 3.18728 138.442 3.32858C138.66 3.43342 138.843 3.60321 138.965 3.81516C139.08 4.02712 139.146 4.26414 139.158 4.50572C139.177 4.76781 139.186 5.03333 139.186 5.30681V7.78758H138.46V7.34316C138.27 7.52284 138.044 7.66063 137.797 7.7477C137.539 7.8457 137.264 7.89584 136.989 7.89812C136.755 7.90274 136.522 7.85608 136.308 7.76137C136.125 7.68238 135.96 7.56658 135.823 7.42114C135.687 7.2757 135.581 7.10371 135.514 6.91584C135.379 6.54823 135.382 6.14398 135.523 5.77858C135.594 5.58486 135.705 5.40709 135.846 5.25553C135.996 5.096 136.176 4.96723 136.374 4.87721C136.6 4.77693 136.845 4.72793 137.092 4.73135C137.355 4.73135 137.616 4.78491 137.858 4.89088C138.09 4.99002 138.295 5.145 138.455 5.34214V4.95014C138.455 4.45216 138.382 4.08409 138.235 3.84137C138.088 3.59865 137.818 3.47786 137.429 3.47786C137.28 3.47445 137.131 3.49562 136.988 3.54053C136.866 3.58053 136.752 3.64061 136.65 3.7183C136.546 3.79958 136.454 3.89466 136.376 4.00091C136.286 4.12245 136.203 4.24874 136.127 4.37923L135.666 3.90746C135.749 3.8163 135.837 3.72514 135.931 3.63398C136.032 3.53598 136.147 3.45393 136.272 3.38898C136.424 3.30921 136.585 3.24995 136.751 3.21121C136.973 3.16115 137.201 3.13706 137.428 3.1417ZM138.46 5.98826C138.384 5.78781 138.266 5.6057 138.115 5.45381C138.02 5.35978 137.911 5.28133 137.791 5.22135C137.65 5.15508 137.496 5.12269 137.341 5.12677C137.176 5.12436 137.013 5.16025 136.864 5.2316C136.725 5.29692 136.601 5.38976 136.498 5.50453C136.396 5.61929 136.318 5.7536 136.269 5.89937C136.215 6.05127 136.188 6.21119 136.188 6.37228C136.185 6.54663 136.22 6.7187 136.292 6.87709C136.357 7.01384 136.447 7.13919 136.557 7.24174C136.661 7.3386 136.784 7.41381 136.917 7.46281C137.036 7.50945 137.163 7.53453 137.291 7.53688C137.409 7.53595 137.526 7.51396 137.636 7.47193C137.756 7.42977 137.868 7.36937 137.971 7.2953C138.184 7.14033 138.353 6.93179 138.461 6.69135L138.46 5.98826ZM140.943 1.45974C141.002 1.40082 141.074 1.35832 141.154 1.3365C141.234 1.31469 141.319 1.31433 141.399 1.33546C141.479 1.35659 141.552 1.39847 141.611 1.45689C141.67 1.51531 141.712 1.58822 141.734 1.66828C141.764 1.77486 141.758 1.88868 141.716 1.99114C141.673 2.0936 141.598 2.17864 141.501 2.23235C141.403 2.28489 141.291 2.30158 141.183 2.27951C141.074 2.25744 140.977 2.198 140.908 2.11156C140.833 2.01755 140.795 1.89913 140.802 1.77891C140.808 1.65869 140.859 1.54507 140.943 1.45974ZM141.678 3.24198V7.78872H140.916V3.24198H141.678ZM144.322 7.78758H143.562V1.42442H144.322V7.78758ZM146.26 1.45974C146.319 1.40251 146.391 1.36153 146.47 1.34083C146.549 1.32014 146.633 1.32044 146.712 1.34172C146.791 1.36299 146.863 1.4045 146.921 1.46216C146.979 1.51982 147.021 1.59164 147.043 1.67056C147.073 1.77665 147.067 1.88994 147.025 1.99191C146.983 2.09325 146.907 2.17689 146.81 2.22861C146.714 2.28033 146.602 2.29696 146.495 2.27565C146.387 2.25388 146.29 2.19505 146.221 2.10933C146.152 2.02361 146.114 1.91638 146.116 1.80616C146.115 1.74153 146.127 1.67734 146.152 1.6177C146.176 1.55805 146.213 1.50425 146.26 1.45974ZM146.995 3.24198V7.78872H146.233V3.24198H146.995ZM151.686 7.78758V4.79744C151.686 4.73705 151.681 4.64019 151.668 4.50572C151.655 4.36689 151.617 4.23152 151.557 4.10574C151.488 3.96563 151.384 3.84528 151.256 3.75591C151.083 3.64551 150.878 3.59287 150.673 3.60549C150.518 3.60549 150.366 3.63284 150.22 3.68753C150.073 3.74218 149.94 3.82855 149.83 3.94051C149.712 4.06266 149.621 4.20772 149.562 4.3667C149.491 4.56207 149.458 4.76876 149.463 4.97635V7.7853H148.698V3.23856H149.46V3.82086H149.497L149.64 3.67614C149.817 3.4847 150.035 3.3377 150.276 3.24426C150.462 3.1736 150.66 3.13828 150.859 3.13942C151.177 3.12119 151.493 3.19184 151.774 3.34453C151.97 3.46077 152.131 3.62714 152.245 3.82656C152.341 3.99977 152.4 4.19121 152.419 4.38949C152.436 4.57979 152.446 4.73135 152.446 4.84074V7.7853L151.686 7.78758ZM157.108 7.06056H157.073C156.986 7.33077 156.798 7.55689 156.548 7.69186C156.279 7.83016 155.98 7.89908 155.677 7.89242C155.392 7.89617 155.108 7.83907 154.847 7.72491C154.6 7.61371 154.381 7.44862 154.206 7.24174C154.019 7.01909 153.877 6.76208 153.789 6.48509C153.686 6.16639 153.636 5.83307 153.641 5.49826C153.636 5.16779 153.686 4.8396 153.789 4.52623C153.877 4.25274 154.02 3.99863 154.206 3.77984C154.384 3.57472 154.604 3.41177 154.851 3.30123C155.115 3.18728 155.398 3.1303 155.685 3.13486C156.008 3.12042 156.329 3.19407 156.613 3.34795C156.839 3.47806 157.005 3.69217 157.075 3.94393H157.112V3.234H157.874V7.69984C157.874 7.99384 157.845 8.28784 157.787 8.57614C157.735 8.84589 157.627 9.1015 157.469 9.32595C157.299 9.55614 157.073 9.73619 156.813 9.849C156.464 9.99301 156.087 10.0599 155.709 10.045C155.487 10.0481 155.266 10.0158 155.054 9.94928C154.879 9.89401 154.712 9.81787 154.555 9.72251C154.351 9.59377 154.169 9.4325 154.016 9.24505L154.507 8.79037C154.646 9.03765 154.827 9.25758 155.04 9.44446C155.26 9.61653 155.533 9.70314 155.81 9.68946C155.982 9.6906 156.154 9.66439 156.318 9.6097C156.475 9.5558 156.617 9.46518 156.733 9.34533C156.858 9.20972 156.951 9.04791 157.007 8.87128C157.077 8.64337 157.112 8.40407 157.106 8.16249L157.108 7.06056ZM157.108 5.17919C157.109 4.97622 157.082 4.77408 157.027 4.57865C156.977 4.39539 156.897 4.22198 156.788 4.06586C156.688 3.91408 156.551 3.79033 156.39 3.70621C156.229 3.6221 156.049 3.58038 155.867 3.58498C155.741 3.5895 155.616 3.60901 155.494 3.64309C155.319 3.69005 155.158 3.77882 155.025 3.90177C154.852 4.06304 154.716 4.26019 154.626 4.47951C154.499 4.80032 154.44 5.14427 154.454 5.48914C154.444 5.82188 154.491 6.15463 154.593 6.47028C154.666 6.69135 154.785 6.89305 154.944 7.0617C155.072 7.19381 155.23 7.29244 155.404 7.34886C155.553 7.39786 155.71 7.42407 155.867 7.42521C156.032 7.42592 156.196 7.38955 156.345 7.31876C156.494 7.24796 156.626 7.14455 156.73 7.01612C156.851 6.8714 156.943 6.70502 157.003 6.52612C157.077 6.3096 157.113 6.0817 157.108 5.85379V5.17919ZM166.28 7.24288C165.988 7.47723 165.655 7.65604 165.299 7.77049C165.037 7.84456 164.767 7.88444 164.495 7.889C164.168 7.89476 163.842 7.84387 163.532 7.73858C163.276 7.65113 163.039 7.51536 162.833 7.3386C162.652 7.18241 162.506 6.98835 162.407 6.76998C162.313 6.56782 162.264 6.34787 162.262 6.125C162.259 5.90808 162.302 5.69294 162.388 5.4937C162.476 5.29428 162.598 5.11081 162.746 4.95128C162.905 4.77921 163.084 4.62651 163.279 4.4966C163.491 4.35466 163.713 4.22823 163.943 4.11828C163.77 3.87498 163.607 3.62484 163.455 3.36846C163.323 3.15025 163.253 2.89997 163.253 2.64486C163.254 2.48533 163.279 2.32693 163.328 2.17537C163.378 2.01584 163.46 1.86884 163.571 1.74349C163.689 1.6113 163.832 1.50533 163.993 1.43126C164.185 1.34325 164.395 1.3 164.606 1.30477C164.783 1.30249 164.96 1.3344 165.126 1.39593C165.283 1.45291 165.427 1.54293 165.548 1.65916C165.774 1.87567 165.913 2.17081 165.938 2.48533C165.964 2.79984 165.874 3.11207 165.686 3.36391C165.52 3.60891 165.226 3.83112 164.803 4.03167L166.587 6.4133C166.772 6.1626 166.911 5.88114 166.999 5.58144C167.107 5.19286 167.164 4.7906 167.17 4.38721H167.875C167.85 4.68846 167.789 4.98549 167.691 5.27149C167.608 5.50965 167.506 5.74061 167.386 5.96205C167.292 6.13596 167.184 6.30177 167.063 6.45774C166.958 6.58423 166.879 6.68337 166.825 6.74263L167.641 7.78872H166.691L166.28 7.24288ZM164.174 4.43279C163.737 4.66298 163.436 4.88974 163.271 5.11423C163.11 5.32882 163.022 5.59051 163.022 5.85949C163.018 6.08853 163.07 6.3153 163.176 6.51928C163.274 6.7073 163.41 6.87253 163.574 7.00472C163.899 7.26681 164.302 7.4104 164.717 7.41495C164.766 7.41495 164.841 7.41495 164.938 7.40014C165.189 7.37494 165.434 7.30953 165.664 7.20642C165.805 7.14146 165.936 7.056 166.053 6.95344L164.174 4.43279ZM164.652 1.70474C164.536 1.70162 164.42 1.72499 164.313 1.77312C164.225 1.81477 164.147 1.87503 164.085 1.94974C164.027 2.02242 163.985 2.10566 163.96 2.19474C163.933 2.28345 163.919 2.37557 163.919 2.46823C163.922 2.69094 163.991 2.90768 164.117 3.09156C164.25 3.2944 164.412 3.5166 164.605 3.75933C164.696 3.70805 164.782 3.64879 164.862 3.58156C165.062 3.42353 165.218 3.21517 165.312 2.9776C165.397 2.75852 165.412 2.51815 165.353 2.29047C165.33 2.19231 165.29 2.09874 165.236 2.01356C165.175 1.91442 165.089 1.83351 164.986 1.77936C164.884 1.72521 164.768 1.69869 164.652 1.70474ZM172.663 5.91419L171.875 7.78758H171.462L174.116 1.42328H174.564L177.488 7.78758H176.615L175.755 5.91533L172.663 5.91419ZM174.157 2.44202H174.122L172.83 5.50623H175.57L174.157 2.44202ZM182.454 7.78758H181.698V7.05144H181.661C181.433 7.61551 180.966 7.89812 180.263 7.89812C179.979 7.90062 179.698 7.84315 179.437 7.72946C179.188 7.61829 178.966 7.45376 178.787 7.24744C178.598 7.0246 178.453 6.7673 178.361 6.48965C178.257 6.17169 178.205 5.83867 178.209 5.50395C178.205 5.17349 178.257 4.84302 178.361 4.53079C178.453 4.2573 178.599 4.00319 178.787 3.7844C178.968 3.58042 179.189 3.41746 179.437 3.30693C179.83 3.13835 180.264 3.09459 180.682 3.18158C180.821 3.21121 180.955 3.26021 181.081 3.3263C181.206 3.39353 181.32 3.48128 181.417 3.58612C181.521 3.70121 181.602 3.83567 181.655 3.98153H181.691V1.42442H182.453L182.454 7.78758ZM181.698 5.17805C181.701 4.9527 181.666 4.72845 181.594 4.51484C181.533 4.33467 181.44 4.16684 181.32 4.01914C181.215 3.8895 181.082 3.78507 180.931 3.7135C180.78 3.64193 180.616 3.60503 180.449 3.60549C180.267 3.60549 180.087 3.63967 179.919 3.71033C179.746 3.78448 179.594 3.90036 179.476 4.04763C179.335 4.22304 179.231 4.42546 179.171 4.64246C179.09 4.92962 179.052 5.22726 179.059 5.5256C179.053 5.82188 179.09 6.11474 179.171 6.39849C179.231 6.615 179.333 6.81442 179.47 6.98991C179.589 7.13463 179.739 7.24858 179.911 7.32151C180.081 7.39215 180.264 7.42743 180.449 7.42521C180.618 7.42648 180.785 7.38742 180.937 7.31126C181.088 7.23719 181.222 7.13235 181.331 7.00358C181.569 6.71245 181.697 6.34719 181.694 5.97116L181.698 5.17805ZM184.139 3.24198L185.634 6.88849H185.687L187.139 3.24198H187.561L185.75 7.78872H185.212L183.344 3.24198H184.139ZM189.044 5.71591C189.034 6.02691 189.088 6.33664 189.205 6.62526C189.296 6.83835 189.433 7.02751 189.607 7.17907C189.76 7.30898 189.938 7.40356 190.131 7.45712C190.303 7.50619 190.482 7.53224 190.662 7.5346C190.928 7.53778 191.19 7.47182 191.423 7.34316C191.541 7.27819 191.653 7.20186 191.757 7.11526C191.868 7.02409 191.986 6.92381 192.111 6.81556L192.397 7.10614C192.16 7.35912 191.873 7.55967 191.555 7.693C191.219 7.83196 190.859 7.90172 190.496 7.89812C190.143 7.90646 189.792 7.83641 189.47 7.693C189.193 7.56676 188.948 7.38028 188.753 7.14716C188.564 6.91935 188.42 6.65698 188.331 6.37456C188.239 6.08887 188.192 5.79049 188.192 5.49028C188.188 5.15772 188.242 4.82702 188.354 4.5137C188.451 4.24021 188.604 3.98951 188.802 3.77756C188.99 3.57612 189.219 3.41757 189.474 3.31263C189.741 3.20437 190.028 3.14967 190.317 3.15309C190.596 3.15217 190.872 3.20198 191.133 3.30009C191.386 3.39467 191.617 3.54281 191.81 3.7354C192.013 3.94507 192.171 4.19577 192.271 4.47153C192.392 4.80998 192.449 5.16779 192.441 5.52788V5.71819L189.044 5.71591ZM191.659 5.35126C191.659 4.76212 191.542 4.29946 191.307 3.9633C191.2 3.80151 191.053 3.67005 190.881 3.58162C190.708 3.49319 190.516 3.45078 190.323 3.45849C190.121 3.45328 189.923 3.50844 189.753 3.61688C189.591 3.7262 189.456 3.87071 189.357 4.03965C189.249 4.22803 189.17 4.43218 189.125 4.64474C189.075 4.87607 189.05 5.11195 189.051 5.34898L191.659 5.35126ZM196.593 7.78758V4.79744C196.591 4.69998 196.584 4.60266 196.574 4.50572C196.561 4.36668 196.524 4.2311 196.462 4.10574C196.394 3.96503 196.291 3.84448 196.162 3.75591C195.988 3.64574 195.785 3.59312 195.579 3.60549C195.425 3.60549 195.272 3.63284 195.127 3.68753C194.98 3.74218 194.846 3.82855 194.737 3.94051C194.618 4.0626 194.527 4.20765 194.467 4.3667C194.398 4.56228 194.364 4.76887 194.369 4.97635V7.7853H193.607V3.23856H194.369V3.82086H194.405L194.548 3.67614C194.725 3.48584 194.944 3.3377 195.185 3.24426C195.371 3.1736 195.568 3.13828 195.767 3.13942C196.085 3.12133 196.403 3.19235 196.683 3.34453C196.879 3.45963 197.041 3.626 197.153 3.82656C197.248 3.99977 197.307 4.19121 197.328 4.38949C197.346 4.57979 197.355 4.73135 197.355 4.84074V7.7853L196.593 7.78758ZM198.368 3.60549V3.24084H199.148V1.84377H199.91V3.24312H200.999V3.60663H199.914V6.6264C199.914 6.69819 199.914 6.78137 199.923 6.87823C199.928 6.96838 199.946 7.05733 199.976 7.1426C200.004 7.22188 200.053 7.29252 200.116 7.34772C200.191 7.40559 200.285 7.43395 200.38 7.42749C200.448 7.42909 200.516 7.41527 200.578 7.38705C200.64 7.35884 200.695 7.31696 200.738 7.26453C200.832 7.15804 200.911 7.03872 200.972 6.91014L201.394 7.34658C201.267 7.48519 201.113 7.59618 200.941 7.67264C200.77 7.7491 200.585 7.78939 200.397 7.791C200.241 7.79135 200.086 7.76435 199.939 7.71123C199.783 7.65223 199.642 7.5606 199.525 7.44248C199.407 7.32437 199.316 7.18249 199.258 7.02637C199.183 6.82888 199.147 6.61887 199.15 6.4076V3.60549H198.368ZM202.94 3.24198V6.24237C202.94 6.30277 202.946 6.39849 202.959 6.5284C202.975 6.67685 203.022 6.82023 203.097 6.94894C203.173 7.07765 203.275 7.18874 203.397 7.27479C203.573 7.38422 203.778 7.43637 203.985 7.42407C204.137 7.42407 204.29 7.39786 204.433 7.3443C204.575 7.28874 204.702 7.20233 204.806 7.09133C204.92 6.96826 205.009 6.82467 205.067 6.66742C205.137 6.47256 205.17 6.26516 205.165 6.05777V3.24198H205.927V7.78872H205.165V7.21553H205.129L204.986 7.36139C204.812 7.54942 204.599 7.69642 204.364 7.79328C204.182 7.86507 203.988 7.9004 203.793 7.89812C203.473 7.91541 203.155 7.84446 202.874 7.693C202.675 7.57633 202.51 7.41029 202.395 7.21098C202.297 7.03749 202.234 6.84607 202.211 6.64805C202.193 6.49826 202.182 6.34766 202.178 6.19679V3.24198H202.94ZM208.151 3.24198V3.969H208.204C208.287 3.73084 208.429 3.51888 208.616 3.35137C208.721 3.26559 208.844 3.20366 208.976 3.16982C209.107 3.13599 209.245 3.13106 209.378 3.15537C209.532 3.17992 209.678 3.23745 209.807 3.32402C209.882 3.3728 209.947 3.43455 210 3.50635L209.696 4.07042C209.624 3.97358 209.538 3.88827 209.441 3.81744C209.333 3.73004 209.198 3.68184 209.06 3.6807C208.951 3.68213 208.844 3.70741 208.746 3.75477C208.63 3.80906 208.528 3.88985 208.449 3.99065C208.35 4.116 208.276 4.25958 208.23 4.41342C208.169 4.61853 208.139 4.83163 208.145 5.04472V7.791H207.383V3.24426L208.151 3.24198ZM211.395 5.71591C211.384 6.027 211.439 6.33695 211.555 6.62526C211.636 6.82568 211.761 7.00491 211.922 7.14914C212.082 7.29336 212.274 7.39873 212.481 7.45712C212.654 7.50612 212.834 7.53233 213.014 7.5346C213.151 7.53588 213.287 7.51863 213.42 7.48333C213.543 7.45033 213.662 7.4033 213.774 7.34316C213.892 7.27935 214.005 7.203 214.108 7.11526C214.22 7.02409 214.337 6.92381 214.462 6.81556L214.749 7.10614C214.512 7.35903 214.225 7.55901 213.906 7.693C213.57 7.83208 213.21 7.90185 212.847 7.89812C212.494 7.90635 212.143 7.83631 211.82 7.693C211.544 7.56676 211.299 7.38028 211.104 7.14716C210.915 6.91926 210.772 6.65716 210.682 6.37456C210.59 6.08887 210.543 5.79049 210.543 5.49028C210.538 5.15772 210.593 4.82702 210.705 4.5137C210.804 4.24021 210.956 3.98951 211.153 3.77756C211.341 3.57612 211.57 3.41757 211.825 3.31263C212.092 3.20437 212.379 3.14967 212.668 3.15309C212.947 3.15195 213.222 3.20095 213.484 3.30009C213.737 3.39467 213.968 3.54281 214.16 3.7354C214.365 3.9449 214.523 4.19591 214.622 4.47153C214.743 4.80998 214.801 5.16779 214.793 5.52788V5.71819L211.395 5.71591ZM214.01 5.35126C214.01 4.76212 213.893 4.29946 213.659 3.9633C213.551 3.80222 213.404 3.67127 213.232 3.58277C213.059 3.49426 212.867 3.4511 212.674 3.45735C212.472 3.45236 212.274 3.50793 212.105 3.61688C211.942 3.72521 211.807 3.86993 211.709 4.03965C211.6 4.22751 211.521 4.43184 211.477 4.64474C211.426 4.87607 211.401 5.11195 211.402 5.34898L214.01 5.35126Z" fill="#334EAD"/>
</g>
</g>
<defs>
<clipPath id="clip0_85_293">
<rect width="215" height="49" fill="white"/>
</clipPath>
</defs>
</svg>
