<svg width="360" height="176" viewBox="0 0 360 176" fill="none" xmlns="http://www.w3.org/2000/svg">
<g clip-path="url(#clip0_97_2)">
<path d="M23.0347 147.64C35.2986 137.854 53.1096 149.688 56.5275 136.374C59.9462 123.056 76.0889 122.052 76.0889 122.052L92.5745 175.722L26.5817 175.712L18.7095 175.71C17.0301 175.71 13.3395 164.534 12.6725 162.786C12.6126 162.628 12.557 162.47 12.498 162.312C14.0005 158.121 17.3431 152.182 23.0347 147.64Z" fill="#ACD29A"/>
<path d="M77.6533 130.003H171.159V175.722H77.6533V130.003Z" fill="white"/>
<path d="M90.7568 140.574H156.321V174.777H90.7568V140.574Z" fill="#CFF3F1"/>
<path d="M92.6553 142.965H154.117V174.892H92.6553V142.965Z" fill="white"/>
<path d="M94.8579 144.985H151.789V152.32H94.8579V144.985ZM135.142 154.313H151.789V174.754H135.142V154.313ZM113.09 154.313H133.557V174.754H113.09V154.313ZM94.8579 154.313H111.682V174.754H94.8579V154.313Z" fill="#8ADCD7"/>
<path d="M115.562 158.202H130.875V174.777H115.562V158.202Z" fill="white"/>
<path d="M116.293 158.952H130.145V174.777H116.293V158.952Z" fill="#CFF3F1"/>
<path d="M122.961 158.952H123.477V174.777H122.961V158.952ZM124.712 166.863C124.712 166.777 124.678 166.694 124.617 166.633C124.555 166.571 124.472 166.537 124.386 166.537C124.299 166.537 124.216 166.571 124.155 166.633C124.093 166.694 124.059 166.777 124.059 166.863C124.059 166.95 124.093 167.033 124.155 167.094C124.216 167.155 124.299 167.19 124.386 167.19C124.472 167.19 124.555 167.155 124.617 167.094C124.678 167.033 124.712 166.95 124.712 166.863ZM122.38 166.863C122.38 166.777 122.346 166.694 122.285 166.633C122.223 166.571 122.14 166.537 122.054 166.537C121.967 166.537 121.884 166.571 121.823 166.633C121.761 166.694 121.727 166.777 121.727 166.863C121.727 166.95 121.761 167.033 121.823 167.094C121.884 167.155 121.967 167.19 122.054 167.19C122.14 167.19 122.223 167.155 122.285 167.094C122.346 167.033 122.38 166.95 122.38 166.863Z" fill="white"/>
<path d="M111.67 155.819H111.639L111.67 155.984V155.819Z" fill="#CCE1FF"/>
<path d="M74.6689 111.119H172.154V132.488H74.6689V111.119Z" fill="#C2DFDD"/>
<path d="M82.5186 119.483H87.1079V114.898H90.2102V119.483H94.8013V122.581H90.2102V127.166H87.1079V122.581H82.5186V119.483Z" fill="#FF7442"/>
<path d="M6.73291 155.897V158.218C6.73359 158.563 6.87104 158.893 7.11515 159.137C7.35927 159.381 7.69013 159.518 8.03524 159.518H8.45253C9.16654 159.518 9.75571 158.935 9.75571 158.218V155.897C9.75571 155.652 9.68559 155.425 9.56588 155.229V155.225C9.44996 155.034 9.28666 154.875 9.09167 154.765C8.89669 154.654 8.67658 154.596 8.45253 154.595H8.03524C7.31695 154.595 6.73291 155.183 6.73291 155.897Z" fill="#5E69AD"/>
<path opacity="0.3" d="M6.86914 158.798C7.08292 159.225 7.52757 159.518 8.03551 159.518H8.45194C9.16596 159.518 9.75513 158.935 9.75513 158.218V155.897C9.75513 155.652 9.68501 155.425 9.56615 155.229C9.54049 155.373 8.98724 158.557 6.86914 158.798Z" fill="#5E69AD"/>
<path d="M27.3789 172.887H20.9399V166.399H27.6568L27.3789 172.887Z" fill="#7A889D"/>
<path d="M7.08008 159.172L38.7079 159.951V143.296H17.9391C16.9683 143.295 16.0163 143.563 15.1879 144.068C14.3594 144.574 13.6867 145.298 13.2437 146.161L11.8841 148.811L7.08008 159.172Z" fill="white"/>
<path d="M25.0477 171.831C25.0477 173.592 24.1379 175.535 24.1379 175.535H22.5978C21.2451 175.535 20.1479 173.877 20.1479 171.831C20.1479 169.784 22.7851 168.126 24.1379 168.126C25.4907 168.127 25.0477 169.785 25.0477 171.831Z" fill="#5E69AD"/>
<path d="M26.5878 171.831C26.5878 173.876 25.4906 175.535 24.1379 175.535C22.7851 175.535 21.688 173.877 21.688 171.831C21.688 169.784 22.7851 168.126 24.1379 168.126C25.4906 168.127 26.5878 169.785 26.5878 171.831Z" fill="#8DB4B1"/>
<path d="M25.9527 171.831C25.9527 173.372 25.1258 174.621 24.1066 174.621C23.0873 174.621 22.2612 173.372 22.2612 171.831C22.2612 170.29 23.0873 169.041 24.1066 169.041C25.1241 169.041 25.9527 170.291 25.9527 171.831Z" fill="#8DB4B1"/>
<path d="M7.33787 171.831C7.33787 173.592 6.42804 175.535 6.42804 175.535H4.88885C3.53521 175.535 2.43896 173.877 2.43896 171.831C2.43896 169.784 5.07526 168.126 6.42804 168.126C7.78082 168.127 7.33787 169.785 7.33787 171.831Z" fill="#5E69AD"/>
<path d="M8.87791 171.831C8.87791 173.876 7.78166 175.535 6.42889 175.535C5.07525 175.535 3.979 173.877 3.979 171.831C3.979 169.784 5.07525 168.126 6.42889 168.126C7.78166 168.127 8.87791 169.785 8.87791 171.831Z" fill="#8DB4B1"/>
<path d="M48.0058 171.831C48.0058 173.592 47.0969 175.535 47.0969 175.535H45.5568C44.204 175.535 43.1069 173.877 43.1069 171.831C43.1069 169.784 45.7441 168.126 47.0969 168.126C48.4496 168.127 48.0058 169.785 48.0058 171.831Z" fill="#5E69AD"/>
<path d="M49.5459 171.831C49.5459 173.876 48.4496 175.535 47.096 175.535C45.7432 175.535 44.647 173.877 44.647 171.831C44.647 169.784 45.7432 168.126 47.096 168.126C48.4496 168.127 49.5459 169.785 49.5459 171.831Z" fill="#8DB4B1"/>
<path d="M3.26307e-06 170.084C-0.000558758 170.451 0.0714851 170.816 0.212013 171.156C0.352542 171.496 0.558797 171.805 0.818981 172.065C1.07916 172.326 1.38817 172.532 1.72832 172.673C2.06847 172.814 2.4331 172.887 2.80133 172.887H20.9433C20.8897 172.575 20.8628 172.26 20.8629 171.943C20.8629 169.548 22.3012 167.605 24.0738 167.605C25.849 167.605 27.2873 169.549 27.2873 171.943C27.2873 172.268 27.2634 172.583 27.2104 172.887H37.8094C37.8094 172.887 38.237 168.16 38.1839 165.79C38.1412 163.727 38.1412 159.687 38.2643 158.7C38.2643 158.553 28.0415 158.535 25.4608 158.526C25.1102 158.522 24.9007 158.522 24.8793 158.522L24.8451 158.547L24.8067 158.575C24.3304 158.907 21.6624 160.773 20.0061 161.868C18.5473 162.829 7.77121 163.221 3.54528 163.34C2.49521 163.368 1.84703 163.378 1.84703 163.378C1.84703 163.378 1.26898 163.97 0.758483 164.903C0.366844 165.626 0.0162503 166.557 0.00940944 167.573C0.00598901 168.206 0.00085837 168.969 0.00085837 169.717V170.084H3.26307e-06Z" fill="white"/>
<path d="M9.63 158.522H23.8436C24.0044 158.522 24.1618 158.476 24.2972 158.389C24.4325 158.302 24.5401 158.179 24.6072 158.033L28.1251 150.216C28.1515 150.157 28.1627 150.093 28.1577 150.028C28.1528 149.964 28.1318 149.902 28.0967 149.848C28.0616 149.793 28.0135 149.749 27.9568 149.718C27.9001 149.687 27.8365 149.671 27.7719 149.671H12.7776C12.6155 149.671 12.4569 149.718 12.3213 149.807C12.1857 149.896 12.0789 150.022 12.014 150.171L9.49318 155.921L8.86297 157.359C8.80828 157.485 8.78601 157.624 8.79814 157.762C8.81028 157.899 8.85645 158.032 8.9325 158.147C9.00856 158.262 9.11211 158.357 9.23385 158.423C9.3556 158.488 9.49173 158.522 9.63 158.522Z" fill="#8ADCD7"/>
<path d="M16.2512 169.715C16.2546 169.961 16.2649 170.192 16.2786 170.397C16.3812 171.758 17.7494 172.887 17.7494 172.887H20.9423C20.8885 172.575 20.8613 172.259 20.8611 171.943C20.8611 171.129 21.0296 170.366 21.316 169.715C21.8804 168.451 22.9022 167.604 24.0712 167.604C25.2444 167.604 26.2662 168.451 26.8315 169.715C27.1171 170.366 27.2855 171.129 27.2855 171.943C27.2855 172.268 27.2607 172.583 27.2077 172.887H38.708V143.297H29.4763L29.4327 148.81C29.4327 148.81 29.2762 149.637 28.9624 150.375L27.8961 152.868C27.0889 154.755 26.2771 156.641 25.4607 158.524C25.2758 158.963 25.0822 159.398 24.8801 159.829C24.7074 160.156 22.1463 161.542 19.9803 162.774C19.4408 163.08 18.9243 163.377 18.4771 163.645C17.84 164.029 17.3406 164.352 17.1055 164.565C16.5137 165.098 16.2204 167.86 16.2512 169.715Z" fill="#DFEBFD"/>
<path d="M1.84863 163.378H18.6942L24.8459 158.547L24.8801 158.522H7.8874L3.04835 162.41L1.84863 163.378Z" fill="white"/>
<path d="M16.5132 166.217L18.0361 166.066C18.2945 166.041 18.5376 165.932 18.7283 165.756C18.9191 165.58 19.0472 165.347 19.093 165.091L19.4436 163.168C19.4513 163.139 19.4539 163.108 19.4513 163.078C18.3653 163.7 17.4521 164.255 17.1058 164.566C16.8527 164.794 16.6526 165.423 16.5132 166.217Z" fill="#A8302D"/>
<path d="M11.8823 148.811H29.4325C29.4325 148.811 29.5009 147.689 29.9405 146.408C30.333 145.277 31.0102 144.015 32.1954 143.296H17.8552C15.5165 143.296 13.4455 144.542 12.622 146.408C12.5844 146.485 12.551 146.562 12.5211 146.64C12.2525 147.346 12.039 148.072 11.8823 148.811Z" fill="white"/>
<path d="M16.5098 166.217L18.0361 166.066C18.2946 166.041 18.5377 165.932 18.7285 165.756C18.9193 165.58 19.0473 165.347 19.093 165.091L19.4436 163.168C19.4513 163.137 19.4539 163.106 19.4513 163.074C18.3653 163.7 17.4521 164.256 17.1058 164.568C16.8527 164.794 16.6526 165.424 16.5098 166.217Z" fill="#A2C2DD"/>
<path d="M6.64812e-06 170.084C-0.00341378 171.632 1.31345 172.887 2.93644 172.887H20.9416C20.888 172.575 20.8611 172.259 20.8612 171.943C20.8612 171.128 21.0297 170.366 21.3161 169.716H0.00171686C6.64818e-06 169.839 6.64812e-06 169.961 6.64812e-06 170.084ZM27.2856 171.943C27.2856 172.267 27.2617 172.583 27.2087 172.887H38.709V169.716H26.8298C27.1172 170.366 27.2856 171.128 27.2856 171.943ZM11.8603 163.515H4.9716C4.75184 163.515 4.58424 163.812 4.61758 164.139L4.86214 166.53C4.8972 166.882 5.09815 167.141 5.33331 167.141H11.0087C11.3721 167.141 11.6927 166.781 11.7988 166.256L12.2075 164.223C12.2802 163.871 12.1049 163.515 11.8603 163.515Z" fill="#5E69AD"/>
<path d="M9.49414 155.921C17.6194 155.505 23.116 151.163 24.7749 149.67H12.7778C12.6158 149.67 12.4574 149.718 12.3219 149.806C12.1864 149.895 12.0798 150.022 12.015 150.17L9.49414 155.921Z" fill="#C5EAE7"/>
<path d="M35.458 143.297H66.194V172.891H35.458V143.297Z" fill="white"/>
<path d="M11.8833 148.811H29.4335C29.4335 148.811 29.5019 147.689 29.9414 146.408H12.6238C12.586 146.483 12.552 146.561 12.5221 146.64C12.2535 147.346 12.04 148.072 11.8833 148.811Z" fill="#DFEBFD"/>
<path d="M0.759277 164.903C0.857615 165.063 0.98246 165.169 1.12013 165.193L3.48279 165.631C3.68203 165.669 3.83595 165.322 3.78379 164.967L3.55291 163.379L3.54522 163.341L3.50075 163.016C3.45799 162.736 3.33657 162.523 3.18607 162.463L3.04925 162.411L1.84868 163.38C1.84868 163.378 1.27063 163.97 0.759277 164.903Z" fill="#5E69AD"/>
<path d="M17.1055 162.774H66.1929V165.268H17.1055V162.774ZM35.4586 148.423H66.1946V150.916H35.4586V148.423ZM47.3138 155.904H49.9382V153.283H51.7116V155.904H54.3368V157.676H51.7116V160.296H49.9382V157.676H47.313L47.3138 155.904Z" fill="#EA6A60"/>
<path d="M13.6217 166.504L16.5102 166.217H16.5136L18.0366 166.067C18.295 166.042 18.538 165.933 18.7288 165.757C18.9195 165.581 19.0476 165.348 19.0935 165.092L19.4441 163.169C19.4518 163.137 19.4543 163.109 19.4518 163.079V163.075C19.4552 162.978 19.4365 162.882 19.3972 162.793C19.3579 162.704 19.2989 162.626 19.2247 162.563C19.1505 162.5 19.063 162.455 18.9689 162.432C18.8748 162.408 18.7764 162.405 18.6813 162.425L14.1818 163.337C14.0417 163.366 13.9123 163.432 13.8079 163.53C13.7035 163.627 13.628 163.752 13.59 163.889L13.0616 165.841C13.0387 165.923 13.0363 166.01 13.0546 166.093C13.0729 166.177 13.1113 166.255 13.1665 166.32C13.2217 166.385 13.292 166.436 13.3713 166.468C13.4506 166.5 13.5365 166.512 13.6217 166.504Z" fill="#5E69AD"/>
<path d="M29.3746 151.075L26.3467 158.523H31.5415C31.5415 158.523 32.6069 158.344 32.7437 156.17C32.89 153.848 32.8891 149.842 32.8891 149.842L30.6085 149.832C29.7397 149.961 29.6046 150.438 29.3746 151.075Z" fill="#8ADCD7"/>
<path d="M27.8866 154.698C27.8866 154.698 27.6241 157.709 29.112 158.532H26.332L27.8866 154.698Z" fill="#5E69AD"/>
<path d="M27.4782 156.713C27.4782 156.713 28.1059 156.267 28.1598 155.898V158.003H27.3389L27.4782 156.713ZM28.1606 155.897V158.218C28.1613 158.563 28.2988 158.893 28.5429 159.137C28.787 159.381 29.1178 159.518 29.463 159.518H29.8811C30.5951 159.518 31.1834 158.935 31.1834 158.218V155.897C31.1834 155.652 31.1133 155.425 30.9944 155.229V155.225C30.8785 155.034 30.7152 154.875 30.5202 154.765C30.3253 154.654 30.1052 154.596 29.8811 154.595H29.4638C28.7455 154.595 28.1606 155.183 28.1606 155.897ZM35.429 171.943C35.429 172.267 35.3837 172.582 35.2862 172.887H56.4484V169.716H34.5919C35.1203 170.366 35.429 171.128 35.429 171.943Z" fill="#5E69AD"/>
<path d="M45.1737 171.943C45.1737 172.267 45.1284 172.582 45.0317 172.887H66.1939V169.716H44.3374C44.865 170.366 45.1737 171.128 45.1737 171.943Z" fill="#5E69AD"/>
<path d="M56.1559 172.889H63.7159C63.8758 172.207 64.3573 167.355 60.1193 167.355C56.2688 167.355 55.9866 171.782 56.1559 172.889Z" fill="#7A889D"/>
<path d="M61.349 171.831C61.349 173.592 60.4391 175.535 60.4391 175.535H58.8991C57.5463 175.535 56.4492 173.878 56.4492 171.831C56.4492 169.784 59.0864 168.127 60.4391 168.127C61.7919 168.128 61.349 169.786 61.349 171.831Z" fill="#5E69AD"/>
<path d="M62.8882 171.831C62.8882 173.876 61.7919 175.535 60.4391 175.535C59.0855 175.535 57.9893 173.878 57.9893 171.831C57.9893 169.784 59.0855 168.127 60.4391 168.127C61.7919 168.128 62.8882 169.786 62.8882 171.831Z" fill="#8DB4B1"/>
<path d="M62.2517 171.832C62.2517 173.373 61.4265 174.621 60.4064 174.621C59.3871 174.621 58.561 173.373 58.561 171.832C58.561 170.29 59.3871 169.041 60.4064 169.041C61.4265 169.041 62.2517 170.291 62.2517 171.832Z" fill="#8DB4B1"/>
<path d="M162.309 112.095H164.586C165.243 112.095 165.775 111.562 165.775 110.907V105.458C165.775 105.302 165.745 105.148 165.685 105.003C165.625 104.859 165.538 104.728 165.427 104.618C165.317 104.507 165.186 104.42 165.041 104.36C164.897 104.3 164.742 104.27 164.586 104.27H162.309C162.153 104.27 161.998 104.301 161.854 104.36C161.709 104.42 161.578 104.508 161.468 104.618C161.358 104.728 161.27 104.859 161.21 105.003C161.151 105.148 161.12 105.302 161.12 105.458V110.907C161.12 111.063 161.151 111.217 161.21 111.361C161.27 111.505 161.358 111.636 161.468 111.747C161.578 111.857 161.709 111.945 161.854 112.004C161.998 112.064 162.153 112.095 162.309 112.095Z" fill="#EBF3FA"/>
<path d="M162.627 103.597H164.49V104.27H162.627V103.597Z" fill="#FFA561"/>
<path d="M161.12 106.867H165.775V108.952H161.12V106.867Z" fill="white"/>
<path d="M297.246 165.711H288.06C288.128 165.23 288.363 163.765 288.793 162.416C288.943 161.947 289.115 161.491 289.314 161.094C290.207 159.312 295.883 160.445 295.883 160.445C295.883 160.445 296.41 160.897 296.821 162.62C297.003 163.378 297.164 164.386 297.246 165.711Z" fill="#233862"/>
<path d="M280.381 25.5012C280.381 25.5012 273.061 26.7845 271.405 31.1025C269.75 35.4196 260.399 105.159 260.399 105.159C260.399 105.159 265.029 108.824 274.969 107.508C284.908 106.19 280.381 25.5012 280.381 25.5012Z" fill="#ABDDDA"/>
<path d="M269.485 162.812C269.46 164.062 269.302 165.243 268.849 165.708H250.678C250.908 165.051 251.562 164.064 253.429 163.761C255.55 163.419 258.854 162.399 260.783 160.361C261.471 159.637 261.983 158.782 262.206 157.785C263.062 153.981 269.276 158.949 269.276 158.949C269.276 158.949 269.525 160.955 269.485 162.812Z" fill="#233862"/>
<path d="M261.659 160.964C263.689 161.611 267.571 163.587 270.037 162.658C271.629 162.058 280.536 136.316 281.115 125.057C281.157 124.237 281.318 123.097 281.57 121.703C282.098 118.797 283.021 114.803 284.084 110.399C286.934 98.5924 290.789 83.823 290.706 79.1009C290.576 71.773 268.851 77.5656 268.851 77.5656C268.851 77.5656 267.358 83.5761 267.058 92.2778C266.469 109.551 264.846 138.726 260.436 158.989C260.248 159.848 260.818 160.697 261.659 160.964Z" fill="#233862"/>
<path d="M276.738 79.1256L288.224 162.292C288.224 162.292 293.267 163.507 297.19 162.535C297.19 162.535 300.552 118.302 300.273 107.609C299.992 96.9153 302.685 78.9966 299.659 77.0196C296.628 75.0435 276.738 79.1256 276.738 79.1256Z" fill="#2B478B"/>
<path d="M301.109 29.3092C301.109 29.3092 289.04 21.5113 280.383 25.5004C279.003 26.136 277.43 27.9097 276.305 29.1485C273.175 32.5942 267.06 87.3217 267.06 87.3217C267.06 87.3217 284.417 93.1954 301.11 85.3293V29.3092H301.109Z" fill="white"/>
<path d="M279.694 25.303C279.694 25.303 267.477 30.3053 265.82 34.15C264.165 37.9946 255.805 72.6248 255.805 75.3929C255.805 78.1611 263.079 84.3826 264.586 79.9185C265.838 76.2106 275.135 45.4276 277.362 38.2236L279.694 25.303Z" fill="#ABDDDA"/>
<path d="M282.232 29.1151C284.9 29.6363 288.817 29.081 291.687 27.1902C290.391 24.1 289.86 21.659 289.673 20.0802C289.662 19.9989 289.653 19.9175 289.645 19.8358C289.561 19.0165 289.572 18.462 289.613 18.2065H282.716C282.716 18.2065 280.832 19.0669 280.832 19.6632C280.832 19.9811 280.828 20.2861 280.823 20.5774C280.812 21.2704 280.783 21.9629 280.736 22.6544C280.605 24.5878 280.383 25.4986 280.383 25.4986C280.383 25.4986 279.538 28.588 282.232 29.1151Z" fill="#FFB27D"/>
<path d="M280.733 22.657C285.958 23.6651 288.99 20.8133 289.672 20.0811C289.769 19.9768 289.817 19.9136 289.817 19.9136C289.76 19.8864 289.703 19.8608 289.644 19.8367C287.701 19.0498 283.287 19.6744 280.822 20.5775C280.811 21.2713 280.781 21.9647 280.733 22.657Z" fill="#E2915A"/>
<path d="M291.378 17.0746C290.445 22.0949 283.961 21.93 281.16 21.6147C280.729 21.5691 280.301 21.5061 279.875 21.4259C278.987 21.1875 278.489 19.7898 278.259 17.9572C277.802 14.3295 278.38 9.00508 278.992 7.64493C279.915 5.59615 281.653 3.37992 288.183 4.97844C294.713 6.57867 292.576 10.6429 291.378 17.0746Z" fill="#FFB27D"/>
<path d="M278.749 4.84423C279.64 3.61052 281.534 2.10171 283.252 1.17301C286.943 -0.82365 291.668 1.23623 291.688 1.24478C297.021 3.5866 298.413 7.66365 295.586 14.0142C292.596 20.7304 289.749 19.9743 289.749 19.9743C289.749 19.9743 290.353 19.5983 290.299 17.5068C290.297 17.4054 290.292 17.304 290.286 17.2027C290.259 16.7738 290.41 16.344 290.731 16.0578C291.395 15.4675 291.717 13.6793 291.162 13.1829C290.493 12.5831 289.553 13.3127 289.253 13.8723C288.989 14.2679 288.519 14.4072 288.081 14.1295C286.422 13.0821 287.5 10.9854 285.914 9.70132C284.329 8.41806 281.109 9.49627 278.731 8.47359C275.616 7.3125 278.077 5.77293 278.749 4.84423Z" fill="#928177"/>
<path d="M278.006 110.281C279.058 110.551 280.098 110.775 281.132 110.944C282.048 111.1 282.956 111.216 283.869 111.291C289.032 111.741 294.221 111.014 300.287 109.277C301.651 108.886 303.061 108.443 304.528 107.95C304.681 107.898 304.128 91.8771 303.489 75.3511C303.424 73.6449 303.357 71.931 303.29 70.23C303.261 69.5097 303.235 68.7938 303.206 68.077C302.626 53.4604 302.049 40.263 301.928 39.5513C301.651 37.9442 301.393 36.5704 301.109 35.3845C300.284 31.9209 299.257 30.0225 297.019 28.3898C296.803 28.2241 295.012 27.3236 293.435 26.5393C292.128 25.8899 290.966 25.3243 290.966 25.3243H290.964C290.443 25.5781 289.818 26.7699 289.166 28.4419C287.962 31.5219 286.667 36.2398 285.766 39.764C285.762 39.7726 285.762 39.7803 285.762 39.782V39.7837C285.376 41.2981 285.004 42.8161 284.645 44.3375C284.444 45.197 284.179 46.8579 283.863 49.1117C283.44 52.1789 282.932 56.3396 282.395 61.0626L282.23 62.5347L282.037 64.252L281.978 64.8116C281.771 66.6801 277.933 109.323 278.006 110.281Z" fill="#ABDDDA"/>
<path d="M282.038 64.2528C285.523 64.1016 302.335 63.337 302.643 62.8431C302.989 62.2929 295.818 45.4456 295.818 45.4456C295.828 45.4798 297.217 59.0762 286.111 60.867C284.952 61.0549 286.283 62.5227 285.497 62.6834C285.436 63.249 282.103 63.6744 282.038 64.2528ZM283.006 67.3662L286.802 69.5602C288.495 70.6401 293.79 72.7897 301.11 74.7641C301.899 74.9784 302.692 75.1741 303.49 75.3511C303.425 73.6446 303.359 71.9381 303.292 70.2317C304.216 70.1646 305.135 70.0376 306.043 69.8515L305.955 69.1791C305.024 68.7972 304.099 68.4273 303.206 68.0804C302.48 67.7959 301.775 67.5259 301.108 67.2756C298.102 66.135 295.873 65.3618 295.873 65.3618L286.973 68.1795L283.006 67.3662ZM280.625 23.9053C279.931 24.1667 278.597 25.5311 278.299 26.2838L277.362 38.2236C277.362 38.2236 279.364 29.4604 280.381 25.5004C280.641 24.4922 280.592 24.1881 280.625 23.9053Z" fill="#91CECF"/>
<path d="M284.705 62.4459L281.895 61.1344C281.304 60.8593 279.217 60.3877 279.217 60.3877L279.3 61.524L281.37 62.9431L284.551 64.5724L284.705 62.4467V62.4459Z" fill="#FFB27D"/>
<path d="M267.976 55.3529L281.099 58.4261L278.629 68.957L265.505 65.8839L267.976 55.3529Z" fill="#627FA8"/>
<path d="M273.538 58.5798L280.673 60.251L280.319 61.7598L273.184 60.0886L273.538 58.5798Z" fill="white"/>
<path d="M283.228 66.182C283.228 66.182 279.868 66.2845 277.978 66.0991C276.088 65.9137 273.903 64.0452 273.784 63.5736C273.665 63.102 273.94 62.2741 276.106 62.1588C277.946 62.0597 280.169 62.1588 280.169 62.1588L284.65 63.19L283.228 66.182Z" fill="#FFB27D"/>
<path d="M283.006 67.3661C283.006 67.3661 285.228 68.3845 287.049 68.7502C287.056 68.7502 287.062 68.7519 287.069 68.7536C290.425 69.4269 296.07 70.3744 301.111 70.3214C301.855 70.3128 302.585 70.2838 303.293 70.23C304.217 70.1631 305.136 70.0364 306.044 69.8506C307.887 69.461 309.429 68.804 310.44 67.7762C317.937 60.1441 306.348 32.7565 303.91 30.09C301.065 26.9784 295.871 25.8874 293.005 25.5132C292.885 25.4986 292.771 25.4824 292.66 25.4704C292.098 25.3995 291.533 25.3508 290.967 25.3243H290.966C290.966 25.3243 291.191 26.0463 291.568 27.2723C291.714 27.7448 291.883 28.2958 292.07 28.9076C293.832 34.672 297.23 45.9958 298.727 52.3839C299.276 54.7206 299.571 56.3969 299.437 56.8967C298.851 59.0788 292.793 60.2005 288.955 60.6969C287.354 60.9037 286.388 60.8464 286.116 60.8678C283.774 60.5184 283.006 67.3661 283.006 67.3661Z" fill="#ABDDDA"/>
<path d="M290.445 23.7113C290.445 23.7113 292.824 24.1231 293.882 25.6388C293.882 25.6388 285.728 39.9067 285.764 39.7786C285.796 39.6521 288.427 25.4645 290.445 23.7113Z" fill="#91CECF"/>
<path d="M161.152 78.0603H353.807V175.722H161.152V78.0603Z" fill="#4AA49E"/>
<path d="M154.955 72.5393H360V80.5251H154.955V72.5393ZM161.152 142.661H353.807V158.431H161.152V142.661ZM310.628 106.093H318.953V97.7193H324.582V106.093H332.907V111.755H324.582V120.129H318.953V111.755H310.628V106.093Z" fill="white"/>
<path d="M250.668 64.2827V72.4556H258.903V64.2562C258.903 63.7627 258.758 63.2801 258.485 62.8685C258.212 62.4569 257.825 62.1346 257.37 61.9418C256.777 61.6914 256.362 61.1489 256.329 60.5047L256.269 59.324H253.247L253.229 60.5013C253.216 61.1429 252.81 61.6948 252.22 61.9435C251.76 62.138 251.367 62.4636 251.091 62.8797C250.816 63.2957 250.668 63.7837 250.668 64.2827Z" fill="#FFA561"/>
<path d="M253.03 59.8434H256.558L256.464 58.9224H253.124L253.03 59.8434Z" fill="#2A4E96"/>
<path d="M245.143 59.4761L245.188 60.2083L245.87 71.4663L247.99 71.4082L248.745 60.11L248.795 59.3752L245.143 59.4761Z" fill="#FFD5B6"/>
<path d="M245.098 59.4829L245.142 60.2202L248.722 60.1211L248.774 59.3804L245.098 59.4829Z" fill="#EBF3FA"/>
<path d="M245.855 70.4479L248.124 70.3864L248.149 72.2241L245.88 72.2856L245.855 70.4479Z" fill="#F0F4FF"/>
<path d="M178.078 93.0015C178.078 93.0015 174.658 95.2758 174.136 96.2344C173.613 97.1939 173.776 99.2443 173.776 99.2443C173.776 99.2443 177.186 100.764 176.77 98.9795C176.372 97.269 177.881 97.9346 178.838 97.1067C179.797 96.2797 180.91 93.8533 180.91 93.8533L178.078 93.0015Z" fill="#FFB27D"/>
<path d="M212.29 18.8064C212.29 18.8064 203.86 8.67276 199.4 15.1566C199.4 15.1566 196.07 16.5389 194.867 22.2077C193.638 27.9918 197.483 32.3875 199.472 31.3007C200.747 30.6036 201.711 32.836 201.711 32.836L212.29 18.8064Z" fill="#536573"/>
<path d="M222.743 72.7316C229.445 70.2624 235.899 58.7874 235.899 58.7874L233.785 57.3076C232.025 59.8836 224.105 64.8295 224.105 64.8295C223.945 62.8433 223.689 60.866 223.338 58.9045C221.14 46.7793 216.11 43.1875 214.761 42.4245C214.651 42.36 214.537 42.3024 214.42 42.252L214.434 42.5091C214.455 42.8731 214.497 43.6087 214.567 44.616C215.092 52.1276 217.144 74.7966 222.743 72.7316Z" fill="#FFB27D"/>
<path d="M200.319 14.1305C200.319 14.1305 199.186 9.59547 192.527 11.012C192.527 11.012 195.714 10.6105 196.588 11.8399C196.588 11.8399 194.062 10.6822 192.48 11.6502C190.898 12.6182 190.639 15.8794 190.875 16.8704C191.111 17.8615 192.858 20.8159 194.015 20.8159C195.172 20.8159 196.541 19.7992 196.541 19.7992L200.319 14.1305Z" fill="#536573"/>
<path d="M190.356 85.1123C193.667 77.6844 195.251 75.5843 195.304 73.2468C195.348 71.3996 194.438 69.4038 192.669 64.5151C192.258 63.3697 191.963 62.1858 191.788 60.9815C190.388 51.5544 195.838 41.3652 199.223 40.6697C200.166 40.4202 201.763 37.0156 201.743 31.5288L202.167 31.6117L209.297 33.0248C209.297 33.0248 209.136 35.2709 209.13 37.3855C209.125 39.1481 209.231 40.8192 209.631 41.0277C210.145 41.0747 210.448 41.1054 210.448 41.1054C210.448 41.1054 216.392 49.3663 216.893 57.0497C217.394 64.7339 212.132 68.0702 216.933 83.4249C221.835 99.1051 188.527 89.2167 190.356 85.1123Z" fill="#FFB27D"/>
<path d="M209.299 33.0248C209.299 33.0248 209.136 35.2718 209.131 37.3855C205.14 37.2736 203.032 33.6306 202.168 31.6117L209.299 33.0248Z" fill="#E8945B"/>
<path d="M201.432 30.835C201.432 30.835 199.34 27.5294 198.84 24.7032C198.481 22.6843 199.508 15.206 207.022 16.2825C207.022 16.2825 209.204 16.4961 211.256 17.8827C212.887 18.9857 215.242 21.3652 212.609 27.8917L211.926 30.096L201.432 30.835Z" fill="#536573"/>
<path d="M210.631 35.0291C210.631 35.0291 201.19 35.1829 201.183 29.2997C201.176 23.4174 199.954 19.4745 205.981 19.125C212.008 18.7773 213.182 21.0217 213.66 22.9842C214.142 24.9492 213.086 34.836 210.631 35.0291Z" fill="#FFB27D"/>
<path d="M210.281 18.9824C210.281 18.9824 207.696 25.8839 203.729 26.9058C199.761 27.9259 198.041 26.863 198.041 26.863C198.041 26.863 201.084 24.4435 201.715 20.222C201.716 20.222 208.332 15.6964 210.281 18.9824Z" fill="#536573"/>
<path d="M209.64 19.5411C209.64 19.5411 211.57 21.0824 212.042 22.5801C212.514 24.0778 212.724 27.1621 213.622 27.057C213.622 27.057 215.569 22.3665 213.38 19.7128C211.062 16.8985 209.64 19.5411 209.64 19.5411Z" fill="#536573"/>
<path d="M198.715 156.389C201.09 165.843 204.666 173.089 204.666 173.089L207.779 172.872C207.779 172.872 206.253 165.605 206.34 155.787C206.401 148.923 207.25 140.81 209.961 133.065C219.277 106.448 217.771 87.0773 217.771 87.0773L200.253 89.1269L199.438 89.2226C199.364 97.2725 199.156 108.201 198.975 116.746C198.814 124.432 198.674 130.189 198.674 130.189C195.305 137.447 196.528 147.69 198.715 156.389Z" fill="#5F7586"/>
<path d="M178.078 93.0023L180.911 93.8524C180.911 93.8524 190.26 78.3337 191.11 74.2942C191.388 72.9802 192.067 70.3487 192.862 67.402C194.503 61.2967 196.621 53.8278 196.621 53.8278L197.319 50.8033L199.699 40.4911C199.699 40.4911 195.143 40.9559 192.476 42.0717C191.593 42.439 190.92 42.879 190.685 43.3959C188.727 47.7045 186.772 58.5755 185.398 66.3315C184.632 70.6537 184.048 74.008 183.744 74.7197C182.895 76.7018 180.297 87.6164 178.078 93.0023Z" fill="#FFB27D"/>
<path d="M188.666 154.88C189.673 165.636 194.108 172.589 194.108 172.589L195.595 173.671C195.595 173.671 197.002 166.094 197.998 157.079C198.948 148.511 200.248 139.444 201.721 136.677C207.563 125.702 209.322 84.2698 209.322 84.2698L191.561 83.3881C189.776 86.392 188.996 91.32 188.812 96.9221C188.345 111.063 191.667 129.502 192.163 132.167L192.165 132.174C192.204 132.38 192.143 132.583 192.048 132.77C188.513 139.77 188.001 147.777 188.666 154.88Z" fill="#909EA9"/>
<path d="M209.999 19.7752C209.999 19.7752 208.157 27.0032 203.15 29.3194C203.15 29.3194 208.155 24.8784 208.58 20.1067C209.008 15.3342 209.999 19.7752 209.999 19.7752Z" fill="#536573"/>
<path d="M233.785 57.3085C233.784 57.0163 233.54 52.7975 234.291 51.9115C235.042 51.0246 236.574 49.7653 237.057 49.8046C237.54 49.8422 239.424 52.3498 238.857 54.2695C238.289 56.1893 235.898 58.7883 235.898 58.7883L233.785 57.3085ZM188.666 154.88C189.673 165.635 194.108 172.589 194.108 172.589L195.624 173.967C195.624 173.967 197.004 166.093 198 157.079C196.947 157.156 192.321 157.324 188.666 154.88ZM198.715 156.389C201.089 165.842 204.665 173.088 204.665 173.088L207.779 172.872C207.779 172.872 206.253 165.605 206.339 155.787C205.284 156.322 203.103 156.863 198.715 156.389Z" fill="#FFB27D"/>
<path d="M202.873 175.702H204.861C205.528 175.597 206.018 175.405 206.7 175.314C207.738 175.179 208.215 175.603 208.309 175.702L208.327 175.721H216.77C216.982 175.419 216.778 174.716 216.578 174.198C216.511 174.025 216.405 173.869 216.268 173.744C216.131 173.618 215.966 173.526 215.787 173.475C214.892 173.216 213.127 172.986 211.511 171.521C210.601 170.7 207.118 168.5 207.118 168.5L207.1 168.495C207.025 168.497 206.659 168.609 205.075 169.947C204.257 170.637 202.86 168.971 202.86 168.971C202.86 168.971 202.598 169.187 202.403 169.591C202.206 169.994 202.143 170.448 202.222 170.889C202.347 171.65 201.94 173.064 201.616 174.022C201.42 174.602 201.254 175.013 201.254 175.013C201.254 175.013 201.164 175.487 202.873 175.702Z" fill="#516896"/>
<path d="M202.407 169.59C202.881 169.925 203.883 170.582 204.548 170.67C205.445 170.787 207.122 168.498 207.122 168.498L207.104 168.494C207.028 168.495 206.662 168.607 205.08 169.945C204.261 170.635 202.865 168.969 202.865 168.969C202.865 168.969 202.604 169.186 202.407 169.59ZM202.873 175.702H204.861C205.528 175.598 206.018 175.405 206.7 175.314C207.738 175.179 208.215 175.603 208.309 175.702L208.327 175.721H216.77C216.982 175.419 216.778 174.716 216.578 174.198C216.323 173.97 216.251 175.19 216.108 175.383C215.966 175.577 209.221 175.453 208.832 175.17C208.443 174.887 207.273 174.39 205.645 174.781C204.227 175.12 202.137 174.251 201.62 174.02C201.423 174.601 201.257 175.012 201.257 175.012C201.257 175.012 201.164 175.487 202.873 175.702Z" fill="#466AA5"/>
<path d="M192.267 175.702H194.255C194.922 175.597 195.412 175.405 196.094 175.314C197.132 175.179 197.609 175.603 197.703 175.702L197.721 175.721H206.164C206.376 175.419 206.172 174.716 205.972 174.198C205.905 174.025 205.799 173.869 205.661 173.744C205.524 173.619 205.36 173.527 205.181 173.475C204.286 173.216 202.521 172.986 200.905 171.521C199.995 170.7 196.512 168.5 196.512 168.5L196.494 168.495C196.419 168.497 196.053 168.609 194.469 169.947C193.649 170.637 192.255 168.971 192.255 168.971C192.255 168.971 191.992 169.187 191.797 169.591C191.6 169.994 191.537 170.448 191.616 170.889C191.741 171.65 191.334 173.064 191.01 174.022C190.814 174.602 190.648 175.013 190.648 175.013C190.648 175.013 190.558 175.487 192.267 175.702Z" fill="#516896"/>
<path d="M191.801 169.59C192.274 169.925 193.277 170.582 193.941 170.67C194.839 170.787 196.516 168.498 196.516 168.498L196.498 168.494C196.423 168.495 196.057 168.607 194.473 169.945C193.653 170.635 192.259 168.969 192.259 168.969C192.259 168.969 191.997 169.186 191.801 169.59ZM192.268 175.702H194.256C194.922 175.598 195.412 175.405 196.095 175.314C197.132 175.179 197.61 175.603 197.704 175.702L197.721 175.721H206.164C206.377 175.419 206.173 174.716 205.973 174.198C205.718 173.97 205.645 175.19 205.503 175.383C205.361 175.577 198.615 175.453 198.226 175.17C197.837 174.887 196.668 174.39 195.039 174.781C193.621 175.12 191.531 174.251 191.014 174.02C190.818 174.601 190.652 175.012 190.652 175.012C190.652 175.012 190.558 175.487 192.268 175.702Z" fill="#466AA5"/>
<path d="M183.794 53.5553C187.318 47.3568 187.485 44.8689 190.947 42.7219C194.811 40.9593 197.697 40.7577 197.697 40.7577C197.697 40.7577 199.043 46.7272 199.891 47.5063C200.742 48.2847 213.067 49.5611 213.352 48.1446C213.622 46.7904 210.147 41.5258 209.887 41.0618C209.875 41.0405 210.448 41.1054 210.448 41.1054C211.853 41.2917 212.844 41.4318 213.559 41.5523C214.509 41.7146 214.973 41.8444 215.285 41.994C216.122 42.1307 220.237 43.4003 224.563 55.1393C224.563 55.1393 221.05 59.5478 218.333 60.3287C218.262 60.3486 218.19 60.3674 218.119 60.3851C218.591 68.2684 221.491 81.3872 220.446 88.9791C219.442 96.2771 204.098 94.4095 201.055 93.7337C198.971 93.2706 197.359 91.0681 196.206 87.1439C195.824 89.8873 194.969 93.1032 193.053 93.3014C189.914 93.6252 188.617 93.0827 188.239 91.8934C188.131 91.5508 188.099 91.0715 188.128 90.4726C188.273 87.5985 190.262 77.6878 192.155 69.3782C192.961 65.8428 194.082 63.2233 194.492 60.538C190.723 60.5397 185.605 57.5589 183.794 53.5553Z" fill="#DF864C"/>
<path d="M238.873 52.7282C238.785 52.3856 238.342 45.6967 238.151 46.3307C237.96 46.9655 237.508 50.4727 237.508 50.4727L238.873 52.7282Z" fill="#FFB27D"/>
<path d="M236.925 43.0687L236.663 43.7539L232.616 54.278L234.571 55.141L239.943 45.1995L240.292 44.5519L236.925 43.0687Z" fill="#627FA8"/>
<path d="M236.925 43.0687L236.663 43.7539L239.943 45.1995L240.293 44.5519L236.925 43.0687Z" fill="#507CB1"/>
<path d="M233.005 53.3459L235.071 54.2559L234.324 55.9518L232.258 55.041L233.005 53.3459Z" fill="white"/>
<path d="M237.51 50.1276C237.51 50.1276 235.69 47.3261 235.245 47.4816C234.611 47.7037 236.895 51.2596 236.895 51.2596C236.895 51.2596 235.202 48.6025 234.939 48.8024C234.337 49.2587 235.295 50.9273 236.247 52.2054C236.247 52.2054 234.545 50.6462 234.488 50.9255C234.294 51.9098 236.357 54.2943 236.357 54.2943L237.51 51.6594V50.1276ZM180.541 94.6026C180.541 94.6026 179.972 97.281 179.277 98.0645C178.579 98.8488 177.62 100.155 177.229 99.8074C176.839 99.4597 177.666 96.5395 177.666 96.5395L180.541 94.6026Z" fill="#FFB27D"/>
</g>
<defs>
<clipPath id="clip0_97_2">
<rect width="360" height="176" fill="white"/>
</clipPath>
</defs>
</svg>
