<svg width="446" height="324" viewBox="0 0 446 324" fill="none" xmlns="http://www.w3.org/2000/svg">
<g filter="url(#filter0_d_0_1)">
<path d="M159.615 252.917C185.66 243.653 226.239 226.221 234.673 251.019C243.743 277.699 263.356 292.842 291.722 293.262C317.503 293.641 342.52 281.082 349.093 254.466C351.694 243.93 349.849 233.609 343.91 225.914C340.543 227.751 336.645 229.016 332.198 229.531C325.448 230.313 314.476 228.259 315.197 219.514C315.891 211.139 325.98 211.114 332.273 213.754C337.241 215.838 341.352 218.798 344.574 222.38C368.082 206.732 358.462 159.254 324.825 162.926C320.248 163.423 311.059 166.128 309.503 171.242L306.787 170.676C309.105 162.991 321.081 159.972 328.037 159.975C362.698 159.98 370.347 208.158 346.289 224.466C352.581 232.789 354.562 243.874 351.781 255.137C344.892 283.028 318.759 296.434 291.674 296.036C262.077 295.603 241.479 279.681 232.014 251.843C224.112 228.595 184.993 246.834 160.61 255.504L159.615 252.917ZM342.085 223.768C339.195 220.69 335.555 218.14 331.198 216.305C326.616 214.379 317.448 213.744 317.967 220.509C318.644 229.312 334.271 227.364 342.085 223.768Z" fill="#FF6B00"/>
</g>
<path fill-rule="evenodd" clip-rule="evenodd" d="M278.155 167.727L273.697 167.065C273.507 168.064 276.154 150.227 294.611 154.023C305.687 156.298 301.614 167.951 286.102 159.516C285.434 159.155 278.155 167.727 278.155 167.727Z" fill="#8C5938"/>
<path fill-rule="evenodd" clip-rule="evenodd" d="M263.408 260.187C266.344 273.643 275.804 272.692 274.101 260.168C272.993 252.044 266.435 246.515 257.951 254.687C256.311 246.252 249.895 249.437 256.223 261.887L263.408 260.187Z" fill="#BAAB87"/>
<path fill-rule="evenodd" clip-rule="evenodd" d="M275.144 230.98C279.17 243.128 286.939 235.987 289.849 228.376C292.907 220.382 286.413 216.684 281.407 225.419C275.505 216.506 268.397 221.37 267.452 223.163C264.34 229.047 273.354 225.104 273.354 225.104C273.354 225.104 275.505 230.688 275.144 230.98Z" fill="#BAAB87"/>
<path d="M281.822 215.147C281.822 215.147 290.888 235.509 274.543 255.347C271.601 259.875 267.561 260.982 265.728 268.349C266.114 276.287 277.278 286.919 290.797 278.44C304.317 269.961 311.175 255.527 311.231 240.91C311.303 222.351 301.529 211.761 301.529 211.761L281.822 215.147Z" fill="#D9CCAD"/>
<path d="M282.295 241.569C281.923 242.676 281.493 243.798 280.999 244.93C280.93 245.356 280.922 245.706 280.967 245.948C282.083 252.134 286.954 242.613 286.954 242.613C286.954 242.613 292.153 244.52 292.036 244.987C302.816 249.641 304.704 239.039 302.364 231.903C299.904 224.406 292.348 227.08 293.684 236.56C287.463 235.878 283.992 238.767 282.295 241.569Z" fill="#D9CCAD"/>
<path fill-rule="evenodd" clip-rule="evenodd" d="M281.822 215.148C281.822 215.148 283.34 218.561 284.016 223.956L289.489 225.508L308.478 224.287C305.612 216.17 301.539 211.754 301.539 211.754L281.822 215.148Z" fill="#BAAB87"/>
<path d="M292.983 213.231C302.338 230.131 300.362 266.942 271.768 274.329C270.489 274.661 269.222 274.897 267.995 275.043C266.244 272.802 265.807 270.345 265.699 268.072C267.44 260.211 271.761 259.739 274.543 255.353C290.888 235.509 281.822 215.148 281.822 215.148L292.983 213.231Z" fill="#CC998C"/>
<path d="M281.822 215.147L281.824 215.158L281.825 215.164L281.826 215.169L281.834 215.184L281.843 215.205L281.844 215.21L281.853 215.236L281.864 215.268L281.866 215.279L281.876 215.305L281.894 215.346L281.895 215.351L281.915 215.409L281.952 215.497L281.953 215.508L281.972 215.554L281.999 215.616L282 215.622L282.021 215.685L282.05 215.757L282.059 215.778L282.106 215.898L282.115 215.918L282.146 216.007L282.147 216.013L282.178 216.102L282.21 216.196L282.219 216.217L282.281 216.389L282.291 216.415C282.313 216.483 282.334 216.546 282.363 216.619L282.404 216.734L282.405 216.739C282.429 216.818 282.458 216.897 282.483 216.981L282.485 216.992C282.719 217.711 282.985 218.62 283.24 219.701L283.245 219.733C283.317 220.037 283.385 220.352 283.457 220.683L283.474 220.758C283.5 220.881 283.527 221.009 283.553 221.138L283.595 221.358C283.622 221.486 283.643 221.616 283.67 221.744L283.687 221.852C283.708 221.981 283.731 222.116 283.757 222.244L283.759 222.255C283.771 222.33 283.785 222.411 283.797 222.487C283.815 222.594 283.832 222.702 283.85 222.81L283.883 223.043C283.901 223.156 283.915 223.27 283.933 223.383C283.948 223.474 283.959 223.572 283.974 223.664C283.983 223.756 283.999 223.853 284.01 223.951L284.011 223.957L289.484 225.509L297.046 225.025C296.194 220.583 294.803 216.523 292.983 213.226L281.822 215.147ZM282.309 216.423C282.331 216.492 282.352 216.554 282.381 216.627L282.309 216.423ZM283.486 220.762C283.512 220.885 283.538 221.013 283.565 221.141L283.486 220.762Z" fill="#A8786B"/>
<path d="M278.073 212.399C268.875 222.022 277.407 242.195 263.655 245.826C259.969 246.797 257.562 243.833 258.708 238.953C259.347 236.236 261.228 232.867 264.757 229.156C262.812 224.019 260.598 220.681 263.789 215.852C265.565 213.154 275.685 209.045 278.073 212.399Z" fill="#C98282"/>
<path d="M295.75 167.26C293.999 185.16 292.422 201.936 290.61 218.928C290.61 218.928 254.355 213.601 254.265 213.627C254.17 213.653 256.039 164.034 256.039 164.034C255.835 164.106 285.915 166.369 295.75 167.26Z" fill="#A18573"/>
<path d="M271.314 225.317C270.634 233.071 269.189 246.333 258.989 243.964C259.828 245.636 261.528 246.386 263.655 245.826C276.94 242.321 269.429 223.375 277.199 213.417C277.225 213.202 277.245 212.989 277.267 212.78C277.508 212.802 277.535 212.294 277.548 211.866C276.752 211.266 275.559 211.075 274.201 211.165C273.513 216.274 271.745 220.366 271.314 225.317Z" fill="#A85C5C"/>
<path d="M274.628 218.371C270.842 220.249 266.519 221.286 262.186 221.151C262.095 219.484 262.502 217.785 263.783 215.848C265.559 213.154 275.679 209.041 278.068 212.4C276.44 214.112 275.37 216.152 274.628 218.371Z" fill="#A85C5C"/>
<path d="M278.238 172.339C275.037 172.056 259.508 184.905 259.508 184.905C259.508 184.905 259.508 183.085 260.098 176.071C260.525 170.954 266.662 171.225 266.662 171.225C266.662 171.225 281.438 172.621 278.238 172.339Z" fill="#6E5240"/>
<path d="M286.125 202.201C285.38 213.971 278.616 212.437 278.616 212.437L269.037 211.355L286.125 202.201Z" fill="#6E5240"/>
<path d="M290.615 218.927L315.243 220.304L322.583 172.994L295.824 167.707L290.615 218.927Z" fill="#CCA68C"/>
<path d="M288.491 178.235L285.993 203.551C285.993 203.551 282.526 210.035 274.989 215.318C267.452 220.601 256.392 222.291 247.715 216.595C238.61 210.615 237.452 195.451 247.078 185.47C257.358 174.817 269.18 171.464 278.237 172.339C285.4 173.027 289.328 173.228 288.491 178.235Z" fill="#D9CCAD"/>
<path d="M312.164 186.331C314.342 176.18 303.998 173.607 302.74 184.914C301.85 192.934 310.218 195.405 312.164 186.331Z" fill="#6E5240"/>
<path fill-rule="evenodd" clip-rule="evenodd" d="M303.482 181.61C303.183 182.484 308.992 175.238 321.675 178.411C328.259 180.058 331.92 183.446 334.013 186.145C341.137 195.328 326.467 205.423 315.173 185.882L303.086 188.736C302.39 187.223 302.114 184.502 303.482 181.61Z" fill="#8C5938"/>
<path d="M261.061 210.164C263.199 199.836 257.873 192.572 248.357 193.864C244.076 194.445 239.817 196.578 237.024 199.549C225.565 211.746 234.222 232.412 248.348 227.22C253.927 225.175 258.919 220.531 261.061 210.164Z" fill="#824040"/>
<path fill-rule="evenodd" clip-rule="evenodd" d="M271.29 276.471C262.717 281.681 256.353 280.159 252.135 273.044C251.394 271.799 251.203 270.165 251.305 269.208C251.687 265.537 256.484 264.622 256.938 269.577C257.711 278.054 267.431 274.842 269.734 272.156C269.897 271.969 271.113 276.035 271.29 276.471Z" fill="#BAAB87"/>
<path d="M274.312 280.551C287.671 283.895 292.812 275.952 281.351 270.619C270.549 265.593 262.495 273.999 266.961 282.993C258.071 285.836 261.354 290.565 273.011 287.925L274.312 280.551Z" fill="#D9CCAD"/>
<path fill-rule="evenodd" clip-rule="evenodd" d="M257.362 177.34C262.862 177.875 270.183 178.891 274.037 180.222C277.85 181.538 280.363 185.585 280.731 191.534C281.223 199.476 280.794 204.715 280.182 210.957C284.133 207.021 285.992 203.551 285.992 203.551L288.49 178.235C289.328 173.228 285.405 173.026 278.237 172.339C272.097 171.748 264.694 173.097 257.362 177.34Z" fill="#BAAB87"/>
<path fill-rule="evenodd" clip-rule="evenodd" d="M292.041 244.986C302.821 249.64 304.709 239.038 302.369 231.902C299.909 224.405 292.353 227.079 293.689 236.56C283.389 235.43 280.629 244.061 280.967 245.948C282.082 252.134 286.954 242.613 286.954 242.613C286.954 242.613 292.158 244.519 292.041 244.986Z" fill="#BAAB87"/>
<path d="M292.041 244.986C293.912 245.797 295.518 246.142 296.877 246.129C298.174 239.945 298.296 233.512 297.47 227.611C295.046 227.976 292.93 231.162 293.689 236.56C287.463 235.878 283.992 238.767 282.295 241.569C281.923 242.676 281.493 243.798 280.999 244.93C280.93 245.356 280.921 245.707 280.967 245.948C282.082 252.134 286.954 242.613 286.954 242.613C286.954 242.613 292.158 244.519 292.041 244.986Z" fill="#A8786B"/>
<path d="M282.519 184.462C281.658 178.312 276.552 177.945 273.821 181.901C272.998 183.093 273.325 184.207 274.613 182.479C276.475 179.971 279.654 180.19 280.079 185.067C280.321 187.822 282.782 186.366 282.519 184.462Z" fill="black"/>
<path d="M269.037 181.348C268.261 176.113 262.787 177.959 262.082 179.796C261.104 182.335 263.293 181.948 264.239 180.227C265.569 177.817 267.825 179.223 268.048 181.488C268.198 182.941 269.28 182.957 269.037 181.348Z" fill="black"/>
<path d="M292.291 239.13C302.843 246.372 304.712 235.989 302.431 228.168C300.036 219.952 292.627 220.931 293.918 230.912C283.831 227.378 281.107 235.55 281.44 237.548C282.519 244.116 287.311 235.527 287.311 235.527C287.311 235.527 292.404 238.674 292.291 239.13Z" fill="#D9CCAD"/>
<path d="M239.044 197.734C238.826 198.13 238.671 198.465 238.658 198.622C237.466 200.76 236.598 202.789 236.011 204.706C230.762 221.831 248.101 229.463 258.383 218.118C255.83 223.119 252.231 225.802 248.348 227.225C234.222 232.418 225.56 211.752 237.024 199.554C237.631 198.902 238.311 198.292 239.044 197.734Z" fill="#A85C5C"/>
<path fill-rule="evenodd" clip-rule="evenodd" d="M291.163 267.596C292.094 268.212 292.399 269.429 292.053 270.892C291.712 272.353 290.709 274.028 289.162 275.461C287.616 276.894 285.855 277.792 284.312 278.139C282.797 278.482 281.519 278.316 280.799 277.637C280.079 276.959 280.001 275.876 280.425 274.65C280.849 273.424 281.755 272.002 283.098 270.647C284.442 269.292 285.973 268.238 287.42 267.652C288.87 267.082 290.231 266.98 291.163 267.596ZM295.9 274.708C299.089 271.993 301.78 268.901 303.977 265.535C304.076 264.152 303.662 263.08 302.759 262.67C300.888 261.821 297.805 263.904 295.457 267.029C293.104 270.149 292.209 273.328 293.818 274.431C294.33 274.784 295.063 274.868 295.9 274.708ZM305.753 262.571C306.454 261.283 307.089 259.961 307.659 258.611C307.582 258.48 307.473 258.388 307.337 258.338C306.737 258.121 305.815 258.909 305.213 260.059C304.612 261.215 304.598 262.346 305.186 262.587C305.357 262.653 305.549 262.643 305.753 262.571ZM309.813 252.188C310.377 249.965 310.769 247.703 311.004 245.424C310.246 245.731 309.516 246.908 309.141 248.402C308.684 250.198 308.935 251.861 309.813 252.188ZM310.815 234.172C310.652 232.91 310.446 231.688 310.205 230.527C309.887 230.003 309.488 229.698 309.091 229.703C308.258 229.718 307.658 231.056 307.706 232.758C307.753 234.46 308.423 235.949 309.342 236.014C310.013 236.058 310.605 235.286 310.815 234.172ZM305.861 248.543C307.654 249.017 308.393 252.305 306.965 255.804C305.537 259.303 302.6 261.401 300.911 260.616C299.222 259.831 299.255 256.7 300.578 253.5C301.899 250.295 304.061 248.064 305.861 248.543ZM308.292 237.337C309.664 237.471 310.783 239.805 310.415 242.649C310.046 245.487 308.273 247.566 306.834 247.221C305.394 246.877 304.817 244.41 305.259 241.781C305.695 239.147 306.92 237.203 308.292 237.337ZM306.316 232.853C306.903 232.89 307.412 233.835 307.372 235.004C307.331 236.167 306.768 237.089 306.153 237.013C305.537 236.937 305.108 235.94 305.183 234.816C305.257 233.686 305.729 232.817 306.316 232.853ZM297.423 258.146C298.731 258.761 298.745 261.243 297.243 263.548C295.74 265.854 293.4 266.968 292.209 266.218C291.018 265.467 291.313 263.222 292.699 261.052C294.086 258.882 296.116 257.531 297.423 258.146ZM303.942 244.609C304.466 244.733 304.732 245.646 304.471 246.619C304.212 247.597 303.557 248.257 303.034 248.105C302.511 247.953 302.313 247.056 302.578 246.105C302.838 245.161 303.418 244.484 303.942 244.609Z" fill="#8C5938"/>
<path fill-rule="evenodd" clip-rule="evenodd" d="M284.646 231.195C284.724 230.153 284.781 229.087 284.766 228.016C284.756 227.115 284.696 226.207 284.608 225.303C284.52 224.399 284.383 223.497 284.227 222.61C283.994 221.331 283.695 220.08 283.342 218.876C285.579 219.322 287.715 219.696 289.445 219.783C289.578 219.783 289.685 219.765 289.781 219.739C295.079 219.992 300.689 220.26 306.207 220.499C311.998 231.671 312.367 245.809 307.94 257.525C304.268 267.241 297.129 275.69 287.462 279.763C283.297 281.521 284.403 281.721 287.398 280.581C297.484 276.739 305.282 267.955 309.102 257.965C313.673 246.009 313.168 231.921 307.203 220.534C309.928 220.651 312.63 220.766 315.253 220.866C315.565 220.881 315.844 220.658 315.898 220.345C317.007 213.423 318.181 205.479 319.061 198.036C320.436 189.532 318.62 194.877 317.799 199.787C316.872 206.872 315.586 213.729 314.754 219.581C306.666 219.256 297.832 218.897 289.745 218.643C289.661 218.641 289.586 218.653 289.508 218.688C286.872 218.468 280.977 217.146 275.931 216.575C276.139 216.054 276.369 215.568 276.617 215.123C276.659 215.044 276.678 214.958 276.67 214.876C277.529 214.209 278.352 213.493 279.151 212.731C284.732 214.199 285.579 209.152 286.464 204.94C288.167 196.847 289.382 183.733 289.722 178.354C289.997 173.965 286.861 172.056 281.263 172.168C276.123 172.238 271.018 170.902 266.097 170.858C262.955 170.832 260.307 171.787 260.095 174.81C260.083 175.006 260.074 175.184 260.079 175.349C259.435 175.643 258.789 175.954 258.148 176.292C255.214 177.836 252.364 179.821 249.827 182.13C245.607 185.977 242.271 190.736 240.84 195.868C240.015 196.335 239.191 196.875 238.396 197.492C224.778 208.068 230.791 232.107 247.27 228.033C251.29 227.041 255.101 224.34 257.723 220.8C259.318 220.875 260.856 220.838 262.331 220.69C261.668 223.66 262.757 225.539 263.857 226.709C264.715 227.624 264.572 228.871 263.359 230.215C261.627 232.132 259.294 235.011 258.431 238.611C256.782 245.517 261.082 247.477 265.345 246.141C272.817 243.795 272.866 236.212 273.503 229.683C273.794 226.736 274.122 223.783 274.643 221.163C277.285 221.111 280.254 224.297 281.744 226.155C280.652 225.438 285.137 229.632 281.825 224.969C280.248 222.743 277.741 220.112 274.833 220.263C275.06 219.252 275.318 218.297 275.617 217.423C277.735 217.717 280.108 218.218 282.42 218.685C282.412 218.741 282.416 218.796 282.43 218.849C282.811 220.529 283.052 222.299 283.229 224.085C283.293 224.744 283.352 225.404 283.405 226.065C283.458 226.726 283.496 227.389 283.538 228.052C283.619 229.355 283.698 230.643 283.705 231.897C283.457 232.104 283.215 232.315 282.97 232.544C281.642 233.957 280.938 235.296 280.689 236.443C280.673 236.446 280.657 236.449 280.641 236.457C277.78 237.126 275.777 231.971 275.401 230.052C275.161 228.83 274.902 227.622 274.794 227.673C274.686 227.724 274.739 228.988 274.832 230.262C275.044 233.104 276.985 238.584 280.585 237.395C280.596 240.73 284.886 241.78 287.791 236.798C288.013 237 288.237 237.19 288.471 237.367C291.649 239.8 296.607 243.844 300.591 241.894C305.493 239.462 304.295 229.815 302.071 226.18C300.821 224.023 300.785 224.377 301.056 225.29C302.175 229.035 305.031 238.299 300.029 240.764C297.075 242.245 290.753 238.287 288.222 236.019C290.406 232.003 288.427 233.899 286.948 236.312C283.875 241.32 279.154 238.483 283.821 233.444C287.129 230.239 290.908 229.298 294.714 232.186C299.234 235.616 298.214 233.791 295.301 231.448C291.753 228.578 288.018 228.848 284.646 231.195ZM265.503 278.833C253.219 281.227 249.017 267.066 253.955 266.98C256.797 266.928 256.067 270.871 256.911 272.542C257.92 274.54 259.508 275.585 261.294 275.883C262.706 276.122 264.25 275.89 265.711 275.285C265.424 276.433 265.421 277.662 265.503 278.833ZM266.097 274.165C264.579 274.896 262.942 275.203 261.474 274.924C259.995 274.642 258.696 273.743 257.9 272.064C256.987 270.145 258.057 265.742 253.949 265.763C247.098 265.793 252.025 283.354 265.58 279.706C265.681 280.829 265.755 281.984 266.324 282.992C266.088 283.036 265.848 283.092 265.61 283.159C260.623 284.526 258.295 289.186 264.91 289.339C267.153 289.385 269.368 289.763 271.62 289.526C272.974 289.381 273.453 289.097 273.704 287.767C273.967 286.368 274.082 284.811 274.264 283.359C274.55 281.126 274.232 281.477 275.686 281.841C277.764 282.363 279.545 282.364 281.83 282.055C283.043 281.894 284.123 281.296 282.793 281.382C279.1 281.607 277.691 281.418 275.099 280.527C274.548 280.335 275.055 275.073 273.349 281.694C272.971 283.167 272.75 285.727 272.506 287.311C272.358 288.259 272.368 288.185 271.487 288.28C269.312 288.516 267.097 288.166 264.925 288.152C260.61 287.82 263.015 284.941 265.877 284.073C266.045 284.023 273.852 282.364 267.261 282.866L267.247 282.846C266.611 281.877 266.637 280.583 266.576 279.47C266.429 276.789 266.639 274.602 268.641 272.541C272.751 268.319 280.079 269.644 284.172 272.939C287.896 275.935 286.94 274.089 284.764 272.227C280.283 268.398 272.323 266.862 267.736 271.677C267.471 271.953 267.226 272.247 267.001 272.561C263.755 264.828 271.043 259.812 273.955 256.888C276.677 254.156 278.364 251.527 280.343 247.373C285.012 237.565 282.501 240.805 279.373 246.891C277.929 249.69 276.631 252.293 274.507 254.59C274.174 254.954 273.819 255.323 273.448 255.688C270.044 250.564 266.004 248.81 261.719 251.119C260.53 251.762 259.325 252.713 258.108 253.992C258.086 253.895 258.06 253.806 258.034 253.71C257.958 253.419 257.872 252.016 257.77 251.734C256.794 249.061 253.962 248.564 252.856 251.529C252.069 253.711 253.438 260.696 256.08 261.822C256.781 262.117 257.593 262.177 258.456 262.074C259.91 261.901 261.497 261.287 262.775 260.916C262.985 262.968 263.751 264.834 264.874 266.553C264.951 266.684 265.086 266.761 265.23 266.765C264.873 268.766 265.143 270.985 266.45 273.415C266.328 273.651 266.204 273.904 266.097 274.165ZM262.738 260.015C261.651 260.271 260.309 260.724 259.027 260.934C258.126 261.077 257.256 261.103 256.555 260.776C254.674 259.901 253.49 253.505 254.034 251.933C254.692 249.943 256.176 250.452 256.871 252.087C256.979 252.34 257.065 253.709 257.153 253.971C257.243 254.25 257.328 254.535 257.408 254.82C256.276 256.351 255.587 258.285 257.19 256.555C258.796 254.814 259.841 253.364 262.123 252.126C266.16 249.924 269.588 251.729 272.802 256.303C270.491 258.437 266.663 261.611 265.469 265.797C264.598 263.997 264.182 262.168 263.963 260.195C263.478 255.798 262.696 255.85 262.738 260.015ZM261.093 174.923L261.112 174.837C261.539 172.581 263.597 171.839 266.089 171.855C268.155 171.898 270.253 172.173 272.372 172.472C271.329 172.594 270.207 172.734 269.129 172.878C267.219 173.142 265.442 173.439 264.45 173.729C263.336 174.056 262.212 174.457 261.093 174.923ZM275.87 172.955C277.656 173.181 279.46 173.35 281.274 173.345C285.742 173.325 288.5 174.759 288.504 178.083C288.506 181.968 287.08 195.111 285.577 203.481C285.452 203.496 285.331 203.565 285.263 203.687C275.177 219.526 261.818 219.684 258.6 219.532L258.617 219.502C261.449 215.086 262.424 208.623 261.862 204.361C261.613 202.471 261.194 203.021 261.278 204.877C261.425 208.134 260.971 213.322 257.66 218.895C255.189 222.787 251.196 225.795 246.976 226.82C231.78 230.512 226.456 208.246 239.09 198.214C239.736 197.704 240.416 197.227 241.125 196.789C241.304 196.804 241.481 196.703 241.553 196.536C244.861 194.61 248.69 193.599 252.069 194.123C252.881 194.25 251.038 192.87 247.216 193.553C245.668 193.83 243.822 194.382 241.942 195.299C243.537 190.694 246.735 186.483 250.633 183.027C253.119 180.814 255.9 178.913 258.741 177.412C260.752 176.351 262.789 175.48 264.79 174.858C265.542 174.618 266.762 174.368 268.139 174.125C270.838 173.648 274.144 173.194 275.87 172.955ZM285.233 205.325C284.631 208.699 284.048 212.696 279.896 212.011C281.85 210.03 283.627 207.779 285.233 205.325ZM322.36 172.372C320.428 171.865 316.54 171.032 312.389 170.187C305.268 168.739 297.388 167.256 297.388 167.256C297.371 167.253 297.349 167.252 297.332 167.249C297.332 167.249 287.094 166.33 276.847 165.462C266.606 164.594 256.356 163.771 256.356 163.771C256.081 163.744 255.838 163.95 255.806 164.227C255.01 181.007 256.27 182.006 256.762 164.828C258.926 165.031 267.83 165.876 276.737 166.676C284.274 167.358 291.819 168.011 295.27 168.307C288.286 229.535 290.306 230.752 296.124 168.382L297.19 168.473C297.799 168.578 307.288 170.256 314.685 171.669C317.839 172.274 320.613 172.825 322.147 173.199C322.377 173.255 322.609 173.117 322.671 172.886C322.729 172.666 322.586 172.435 322.36 172.372ZM309.079 187.862C309.979 187.648 310.9 187.43 311.743 187.236C311.65 187.478 311.546 187.722 311.429 187.957C311.194 188.444 310.912 188.916 310.601 189.349C309.811 190.464 308.462 191.217 307.11 191.372C305.828 191.517 304.53 191.093 303.757 189.821C302.734 188.179 302.538 185.605 303.082 183.325C303.129 183.134 303.18 182.943 303.238 182.757C309.48 176.63 323.035 177.258 329.597 182.543C332.949 185.23 334.697 187.787 335.246 189.987C335.81 192.241 335.048 194.07 333.47 195.137C332.02 196.117 329.93 196.46 327.586 195.971C321.692 194.748 318.541 190.186 315.3 185.683C315.177 185.51 314.965 185.428 314.757 185.479C314.757 185.479 311.684 186.239 308.859 186.963C301.314 188.894 304.212 189.021 309.079 187.862ZM312.744 187C313.581 186.807 314.268 186.644 314.653 186.559C317.976 191.297 321.161 195.865 327.332 197.186C330.056 197.768 332.489 197.318 334.177 196.178C336.169 194.832 337.179 192.525 336.458 189.683C335.856 187.298 333.99 184.494 330.34 181.608C325.051 177.441 316.262 176.384 309.8 178.171C309.741 178.114 309.662 178.072 309.576 178.053C308.997 177.932 308.411 177.702 307.817 177.622C307.517 177.583 307.219 177.582 306.917 177.632C304.281 178.092 302.568 180.36 301.882 183.024C301.209 185.63 301.545 188.585 302.723 190.466C303.801 192.148 305.539 192.721 307.258 192.477C308.892 192.247 310.497 191.275 311.411 189.897C311.734 189.407 312.024 188.883 312.267 188.34C312.456 187.905 312.619 187.452 312.744 187ZM308.289 178.64C306.738 179.205 305.295 179.951 304.039 180.899C304.735 179.744 305.743 178.87 307.095 178.582C307.373 178.52 307.652 178.535 307.93 178.577C308.055 178.596 308.169 178.616 308.289 178.64ZM274.729 216.534C274.618 216.597 274.531 216.705 274.509 216.841C274.495 216.927 274.509 217.013 274.538 217.086C273.403 220.587 272.885 225.248 272.404 229.593C271.766 235.275 271.666 243.121 264.916 244.944C261.536 245.859 258.328 244.084 259.658 238.57C260.438 235.338 262.695 232.77 263.971 231.211C268.034 226.233 262.183 226.391 263.211 220.723C263.221 220.682 263.219 220.638 263.218 220.594C264.609 220.41 265.947 220.129 267.236 219.757C266.208 222.228 266.428 225.218 267.183 227.656C266.847 229.382 265.819 232.589 264.738 234.803C263.493 237.359 264.03 238.439 265.796 234.878C267.322 231.805 267.967 229.431 268.203 227.433C268.081 226.114 267.044 222.229 268.306 219.471C268.314 219.453 268.317 219.436 268.324 219.412C270.664 218.63 272.831 217.543 274.841 216.206C274.81 216.316 274.766 216.423 274.729 216.534ZM285.492 160.418C287.561 161.19 289.722 161.887 291.867 162.414C295.59 163.313 298.285 163.114 299.927 162.368C303.057 160.941 302.451 157.925 300.24 155.948C292.439 148.952 279.408 153.057 275.344 162.174C273.99 165.212 274.583 165.829 276.271 162.292C280.356 153.742 292.443 150.594 299.397 156.883C300.891 158.231 301.665 160.179 299.398 161.232C297.922 161.917 295.494 162.056 292.129 161.281C289.94 160.788 287.671 160.11 285.561 159.355C285.384 159.29 285.19 159.322 285.05 159.445C277.303 168.47 280.748 166.033 285.492 160.418Z" fill="black"/>
<g filter="url(#filter1_d_0_1)">
<path d="M111.057 138.959C97.7572 127.459 75.9783 128.711 63.0278 140.435C73.2703 150.62 72.4198 171.736 60.612 172.039C51.2879 172.279 49.0025 161.411 51.4183 153.709C53.0202 148.601 55.6708 144.218 59.031 140.592C55.2116 137.795 50.1087 136.647 43.7587 138.687C26.7905 144.124 22.8772 172.201 25.387 187.426C29.4516 212.122 47.7555 232.669 72.9416 236.598L76.8914 237.073L76.6618 239.75L72.5241 239.249C46.1901 235.143 26.9888 213.708 22.7363 187.865C19.8614 170.406 24.9539 138.844 46.0493 135.379C52.2062 134.367 57.1735 135.828 60.9668 138.656C74.8408 125.846 98.3625 124.432 112.962 137.07L111.057 138.959ZM61.0764 142.361C57.9405 145.716 55.4673 149.785 53.9802 154.523C52.0079 160.79 53.8133 170.667 61.4312 169.268C69.7066 167.75 69.4196 150.792 61.0764 142.361Z" fill="#FF6B00"/>
</g>
<path fill-rule="evenodd" clip-rule="evenodd" d="M168.265 131.627C167.633 131.262 167.419 130.459 167.785 129.833C168.15 129.201 168.953 128.987 169.58 129.353C170.211 129.718 170.425 130.521 170.06 131.147C169.7 131.774 168.891 131.993 168.265 131.627Z" fill="#A6A8E8"/>
<path fill-rule="evenodd" clip-rule="evenodd" d="M156.18 140.451C155.847 140.258 155.732 139.83 155.925 139.491C156.118 139.157 156.546 139.042 156.885 139.235C157.219 139.428 157.334 139.856 157.141 140.195C156.947 140.529 156.514 140.644 156.18 140.451Z" fill="#A6A8E8"/>
<path fill-rule="evenodd" clip-rule="evenodd" d="M146.407 129.139C146.031 128.919 145.901 128.439 146.12 128.059C146.339 127.683 146.819 127.552 147.2 127.772C147.576 127.991 147.706 128.471 147.487 128.852C147.268 129.227 146.783 129.353 146.407 129.139Z" fill="#A6A8E8"/>
<path fill-rule="evenodd" clip-rule="evenodd" d="M152.444 181.629L163.386 182.125C162.629 189.404 154.02 200.549 137.292 198.848L138.064 183.92C141.644 187.118 149.402 186.049 152.444 181.629Z" fill="#FF6600"/>
<path fill-rule="evenodd" clip-rule="evenodd" d="M159.3 181.937C158.325 187.39 150.248 195.874 145.28 191.225C143.277 189.346 140.605 186.101 139.833 186.017C139.833 185.856 143.183 193.74 143.031 193.74C143.031 193.51 142.75 193.661 142.854 193.917C142.979 194.214 143.031 194.788 143.12 195.159C143.292 195.889 142.358 194.324 142.765 194.981C142.828 195.081 143.365 196.729 143.386 196.844C143.407 196.959 143.668 197.992 143.887 198.837C156.3 197.475 162.744 188.365 163.391 182.114L159.3 181.937Z" fill="#AD4500"/>
<path fill-rule="evenodd" clip-rule="evenodd" d="M161.847 187.103L148.771 184.63C150.248 183.93 151.547 182.923 152.439 181.629L163.381 182.125C163.229 183.664 162.713 185.376 161.847 187.103Z" fill="#9E4717"/>
<path d="M64.2121 185.704L56.7402 216.103L71.663 241.879L83.4395 211.47C83.4395 211.47 66.6592 189.863 64.2121 185.704Z" fill="#A18573"/>
<path d="M66.4082 232.8L71.6625 241.873L83.439 211.464C83.439 211.464 81.1901 208.568 78.216 204.692L66.4082 232.8Z" fill="#856654"/>
<path d="M123.835 203.992L98.4869 184.123L64.2114 185.699L83.4388 211.464C83.4388 211.469 123.835 203.215 123.835 203.992Z" fill="#D9B59E"/>
<path d="M187.199 246.611L131.495 195.921L83.8408 201.457L135.116 257.026L187.199 246.611Z" fill="#CCA68C"/>
<path fill-rule="evenodd" clip-rule="evenodd" d="M147.138 203.81C147.138 203.81 155.126 197.131 162.165 197.731C167.988 198.639 168.421 205.402 169.115 205.224C169.115 205.224 172.272 198.765 177.526 199.255C182.472 199.714 179.613 208.214 175.35 215.759C173.8 218.498 172.986 221.029 171.312 221.446C168.374 222.177 164.857 219.176 164.857 219.176L157.798 212.529L148.953 217.736C148.953 217.736 147.138 203.956 147.138 203.81Z" fill="#FF6600"/>
<path d="M123.84 206.93C111.114 203.064 107.217 205.13 109.403 210.969C111.975 217.846 117.433 221.958 123.418 225.782C134.01 232.56 119.395 227.687 123.632 233.41C127.868 239.129 140.579 244.848 149.898 245.907C159.217 246.966 158.371 241.67 158.371 241.67C158.371 241.67 156.89 237.433 146.72 232.351C136.551 227.269 135.069 226.633 135.069 226.633L143.965 223.669L142.483 216.041C142.478 216.035 123.626 206.716 123.84 206.93Z" fill="#B0856B"/>
<path fill-rule="evenodd" clip-rule="evenodd" d="M149.84 205.266C155.095 200.147 164.951 195.837 165.859 208.313C166.188 212.795 167.153 210.077 168.489 208.475C170.576 205.97 174.312 202.427 174.969 204.462C175.157 205.036 174.515 204.285 175.679 204.285C178.037 204.285 176.128 204.233 175.147 206.596C175.126 206.648 175.021 207.175 174.969 207.306C174.202 209.153 172.486 215.096 172.486 216.364C172.486 216.562 171.598 218.769 171.598 219.74C171.598 220.455 171.421 219.641 171.421 220.804C171.421 221.41 171.296 220.924 171.254 221.462C168.332 222.14 164.857 219.176 164.857 219.176L157.798 212.529L148.953 217.736C148.953 217.736 147.806 209.038 147.336 205.386C147.628 205.047 148.802 204.64 149.22 204.64C149.46 204.645 149.799 205.308 149.84 205.266Z" fill="#DE5900"/>
<path fill-rule="evenodd" clip-rule="evenodd" d="M120.621 182.167C120.621 182.167 109.888 197.209 116.781 211.543C121.258 220.856 130.707 219.886 136.431 220.648C146.35 221.968 139.442 226.883 136.718 231.349C135.476 233.384 136.478 234.908 138.054 236.05C140.684 237.955 148.86 240.282 154.725 240.496C158.695 240.637 161.894 240.199 160.485 236.52C159.64 234.318 158.627 232.977 153.691 229.356C162.541 218.743 158.288 213.191 151.129 209.456C151.761 205.584 153.952 197.522 142.499 192.399L140.193 183.737L132.095 179.563L120.621 182.167Z" fill="#FF6600"/>
<path fill-rule="evenodd" clip-rule="evenodd" d="M120.621 182.167C120.621 182.167 118.904 184.577 117.282 188.386C125.917 191.256 135.095 189.101 140.949 186.602L140.188 183.737L132.09 179.563L120.621 182.167Z" fill="#9E4717"/>
<path d="M188.572 127.187L181.977 183.398L134.192 183.784L136.165 121.495L188.572 127.187Z" fill="#CCA68C"/>
<path d="M151.187 179.861C157.166 180.189 163.297 180.226 169.266 180.497C173.347 180.685 177.062 180.758 178.09 172.822C178.747 167.74 181.585 144.416 181.617 137.727C181.622 136.287 184.283 131.748 175.115 131.476C172.407 131.393 168.912 147.255 166.188 147.297C160.96 147.37 147.06 151.142 142.734 154.81C140.323 156.856 140.183 162.444 140.183 162.444L143.376 169.618C143.381 169.618 149.622 179.292 151.187 179.861Z" fill="#6E5240"/>
<path d="M165.405 173.057C163.96 173.417 164.623 173.944 163.986 173.944C163.986 173.97 161.012 177.852 160.61 177.852C160.61 179.84 146.757 176.067 146.757 173.944C146.434 173.944 144.566 171.637 144.091 171.637C144.091 171.564 136.906 157.962 141.784 157.962C141.784 152.765 160.454 172.347 164.873 172.347L165.405 173.057Z" fill="#CCCCCC"/>
<path d="M138.57 166.837C137.662 180.059 148.53 180.435 152.637 179.808C158.303 178.942 163.093 178.149 163.312 178.107C163.542 178.05 164.074 177.878 164.095 177.638C164.116 177.398 163.631 177.085 163.396 177.053C154.953 175.848 143.344 169.07 142.17 161.416C142.107 160.988 142.358 160.576 142.77 160.435C143.177 160.294 143.631 160.461 143.845 160.837C150.8 172.958 171.123 178.786 180.343 171.867L179.654 166.096C179.654 166.096 184.929 158.332 184.225 150.255C184.001 147.683 182.889 129.629 151.885 127.965C147.377 127.725 142.285 130.094 141.314 139.908C140.584 147.265 139.227 157.325 138.57 166.837Z" fill="#F7D6B6"/>
<path d="M136.165 121.495L99.4316 128.377L107.05 180.544L134.192 183.784L136.165 121.495Z" fill="#A18573"/>
<path d="M120.799 182.188L131.093 183.414L129.523 178.561C129.523 178.561 133.572 170.343 130.666 169.629C127.227 168.783 126.069 176.172 126.069 176.172C124.389 172.624 128.427 165.788 124.801 165.454C121.013 165.11 121.894 174.721 121.936 174.992C120.402 170.709 121.044 166.237 118.461 167.729C117.099 168.512 117.005 176.683 120.799 182.188Z" fill="#856654"/>
<path d="M172.293 256.17L195.548 273.159L156.921 262.604L172.293 256.17Z" fill="#CCA68C"/>
<path d="M182.863 204.64C184.277 198.201 176.179 196.296 172.809 202.84C171.019 206.309 169.527 212.633 168.577 216.265C166.636 223.679 172.71 225.25 176.414 217.684C178.527 213.353 182.488 206.33 182.863 204.64Z" fill="white"/>
<path d="M160.975 288.04L162.52 285.661L188.045 246.402L135.116 257.026L107.9 305.342L160.975 288.04Z" fill="#856654"/>
<path d="M135.116 257.026L107.9 305.342L65.835 246.403L83.8414 201.457L135.116 257.026Z" fill="#A18573"/>
<path d="M153.482 263.12C143.845 271.646 131.296 287.628 125.494 299.608L148.619 292.068L153.482 263.12Z" fill="#6E5240"/>
<path d="M158.366 262.103C157.583 261.884 140.5 289.298 140.5 289.298L148.118 296.159C152.684 315.877 164.393 321.272 170.784 322.504C171.243 322.592 171.405 322.128 171.807 322.185L165.441 310.769L193.278 321.992L194.217 321.716L191.16 307.419L204.856 310.68L205.858 310.367L194.556 288.964L203.39 287.837L204.194 287.456C204.199 287.451 186.625 270.008 158.366 262.103Z" fill="#CCA68C"/>
<path d="M114.469 265.907L83.8408 231.861L84.0652 271.944L95.7269 288.286L114.469 265.907Z" fill="#856654"/>
<path d="M114.469 265.907L83.8408 231.861L76.2959 275.873L86.9036 285.578L114.469 265.907Z" fill="#CCA68C"/>
<path d="M157.479 262.457C156.697 262.238 139.614 289.652 139.614 289.652L147.232 296.514C152.121 317.64 164.909 321.715 170.92 322.54L164.508 311.076L193.284 322.023L190.273 307.768L204.971 310.716L193.67 289.313L203.307 287.805C203.307 287.805 185.739 270.362 157.479 262.457Z" fill="#FF7500"/>
<path d="M157.479 262.457C156.697 262.238 139.614 289.652 139.614 289.652L145.839 295.256L145.677 287.983L160.772 294.374L156.686 280.521L169.475 282.473L160.949 271.108L176.576 273.597L170.023 266.804C166.12 265.186 161.93 263.704 157.479 262.457Z" fill="#FF6000"/>
<path d="M150.263 171.789C150.451 175.556 151.755 178.05 153.54 179.668C158.805 178.854 163.109 178.144 163.318 178.107C163.548 178.05 164.08 177.878 164.101 177.638C164.122 177.398 163.636 177.085 163.401 177.053C159.243 176.459 154.328 174.518 150.263 171.789ZM167.33 130.746C166.136 130.621 164.899 130.522 163.605 130.454C161.81 130.355 159.926 130.673 158.246 131.711C160.448 132.155 162.374 132.948 164.132 133.757C169.913 133.099 174.599 134.388 177.75 136.814C175.319 134.524 171.969 132.369 167.33 130.746ZM152.533 147.093C151.834 153.375 150.926 160.826 150.383 168.053C159.478 174.945 173.221 177.205 180.344 171.867L179.655 166.096C179.655 166.096 184.93 158.332 184.226 150.255C184.179 149.739 184.1 148.601 183.751 147.093C183.25 151.575 178.679 152.624 170.143 143.462C166.094 150.516 158.032 150.939 155.069 145.768C154.343 146.347 153.477 146.775 152.533 147.093Z" fill="#FFE3BB"/>
<path fill-rule="evenodd" clip-rule="evenodd" d="M159.498 165.621C166.386 167.484 169.313 156.699 162.78 154.241C155.528 151.518 152.303 163.68 159.498 165.621Z" fill="black"/>
<path fill-rule="evenodd" clip-rule="evenodd" d="M165.728 130.255C171.635 129.937 176.399 131.591 179.555 134.309C191.18 144.333 184.017 155.958 170.32 140.419C168.692 148.34 158.846 148.977 156.665 141.724C151.938 145.209 140.98 142.173 140.98 142.173C140.98 142.173 141.21 130.907 147.534 128.653C155.83 125.69 161.298 127.949 165.728 130.255Z" fill="#45B2E0"/>
<path d="M160.025 165.465C166.161 167.317 168.77 157.617 162.947 155.238C156.493 152.598 153.618 163.534 160.025 165.465Z" fill="#E5E5E5"/>
<path fill-rule="evenodd" clip-rule="evenodd" d="M174.071 165.83C177.072 166.722 179.159 163.456 179.55 160.878C180.223 156.495 176.492 154.622 173.623 156.949C171.202 158.916 169.929 164.682 174.071 165.83Z" fill="black"/>
<path d="M174.436 165.527C178.684 166.884 181.465 158.989 177.468 157.247C173.033 155.311 170.007 164.113 174.436 165.527Z" fill="#E5E5E5"/>
<path d="M177.938 164.442C179.78 162.397 180.166 158.421 177.468 157.247C176.732 156.923 176.033 156.902 175.402 157.09C173.503 159.224 173.127 163.472 176.096 164.421C176.748 164.63 177.369 164.619 177.938 164.442Z" fill="white"/>
<path d="M169.188 163.117L167.951 166.425L167.096 169.055C172.094 172.352 175.548 171.554 176.509 170.14C181.491 162.798 173.487 163.216 169.188 163.117Z" fill="#E46A63"/>
<path d="M168.886 163.936L167.957 166.425L167.101 169.055C169.465 170.615 171.484 171.257 173.06 171.356C173.227 171.22 173.368 171.063 173.477 170.907C177.505 164.953 173.018 164.098 168.886 163.936Z" fill="#F37972"/>
<path fill-rule="evenodd" clip-rule="evenodd" d="M192.198 285.677C188.17 284.612 184.147 283.548 180.124 282.478C183.385 286.574 186.098 291.406 187.94 297.396C182.138 294.792 172.25 290.352 167.873 290.112C170.513 299.702 178.433 307.774 181.548 312.136C175.308 310.962 168.254 309.11 159.169 305.567L163.161 320.103C166.14 321.627 168.911 322.263 170.925 322.54L164.512 311.077L193.288 322.023L190.278 307.769L204.976 310.717L193.674 289.313L203.312 287.805C203.312 287.805 197.249 281.789 186.521 275.22C188.41 278.706 190.304 282.191 192.198 285.677Z" fill="#FF8925"/>
<path d="M153.441 263.162L136.655 290.247L139.588 289.626L157.526 262.452L153.441 263.162Z" fill="#7A5740"/>
<path fill-rule="evenodd" clip-rule="evenodd" d="M125.594 178.326C128.489 178.039 130.832 178.963 130.832 180.387C130.832 181.812 128.484 183.195 125.594 183.476C122.698 183.763 120.355 182.84 120.355 181.415C120.355 179.996 122.703 178.613 125.594 178.326Z" fill="#9E4717"/>
<path fill-rule="evenodd" clip-rule="evenodd" d="M126.549 180.821C124.216 189.132 123.173 196.829 123.115 201.629C122.985 212.195 132.168 216.974 142.682 215.581C145.953 215.148 147.091 214.898 145.953 218.785C144.545 223.606 141.497 234.892 140.72 237.694C139.191 237.125 138.826 236.619 138.054 236.061C136.478 234.918 134.427 234 136.363 232.602C136.864 232.242 137.662 231.229 137.866 229.774C138.607 224.389 140.115 221.331 140.61 220.392C132.34 221.592 120.256 220.147 116.254 211.819C109.361 197.486 120.626 182.177 120.626 182.177L126.549 180.821Z" fill="#E05A00"/>
<path fill-rule="evenodd" clip-rule="evenodd" d="M120.443 183.252C120.443 183.252 122.776 186.07 126.898 187.16C131.02 188.251 130.769 185.449 130.769 185.449C130.769 185.449 130.879 194.136 130.795 194.246C130.717 194.355 134.203 200.204 130.973 205.98C127.743 211.757 119.927 212.242 117.125 203.982C114.323 195.722 120.443 183.252 120.443 183.252Z" fill="#AD4500"/>
<path d="M128.907 181.436L127.863 176.839C127.863 176.839 132.95 169.696 130.133 169.075C126.799 168.339 124.712 174.757 124.712 174.757C123.48 171.674 128.385 165.731 124.795 165.444C121.049 165.141 120.715 173.495 120.72 173.735C119.723 170.014 120.934 166.127 118.163 167.421C116.462 168.219 115.21 177.768 120.616 182.161C124.722 185.495 128.907 181.436 128.907 181.436Z" fill="#CC998C"/>
<path fill-rule="evenodd" clip-rule="evenodd" d="M130.879 179.788C130.242 181.974 123.59 184.27 120.01 181.979C120.01 181.979 119.896 190.667 119.979 190.776C120.063 190.886 116.394 196.735 119.791 202.511C123.188 208.287 131.422 208.772 134.37 200.513C137.318 192.258 130.879 179.788 130.879 179.788Z" fill="#F2732B"/>
<path d="M182.186 208.214C184.701 200.382 179.681 197.637 175.627 205.005C173.743 208.428 172.178 213.896 171.228 217.527C169.574 223.846 172.491 223.59 175.977 219.14C176.582 218.362 180.354 213.927 182.186 208.214Z" fill="#DFDFDF"/>
<path fill-rule="evenodd" clip-rule="evenodd" d="M60.8045 199.547L76.8387 219.474L74.6472 224.718L59.1035 204.812L60.8045 199.547Z" fill="#7A5740"/>
<path fill-rule="evenodd" clip-rule="evenodd" d="M125.108 182.84C125.369 186.983 125.646 192.07 125.422 192.926C122.693 203.34 127.89 204.749 131.458 204.947C131.177 205.203 130.874 205.453 130.551 205.694C126.909 208.01 122.166 206.565 119.786 202.521C116.39 196.745 120.058 190.896 119.974 190.786C119.891 190.677 120.006 181.989 120.006 181.989C121.414 182.881 123.303 183.075 125.108 182.84Z" fill="#DE5900"/>
<path fill-rule="evenodd" clip-rule="evenodd" d="M160.484 243.789L153.915 244.634L160.27 251.834L154.552 260.731L161.966 259.463L166.839 250.989C166.839 250.989 160.907 243.789 160.484 243.789Z" fill="#7A5740"/>
<path fill-rule="evenodd" clip-rule="evenodd" d="M161.997 132.384C167.904 132.066 173.91 133.543 177.066 136.261C180.682 139.381 182.639 143.722 183.197 147.756C180.656 148.674 176.059 146.937 170.315 140.42C168.687 148.34 158.841 148.977 156.66 141.724C151.932 145.209 140.975 142.173 140.975 142.173C140.975 142.173 141.184 131.93 146.689 129.024C153.92 127.052 157.875 130.24 161.997 132.384Z" fill="#267DA1"/>
<path d="M161.622 164.4C162.749 164.739 163.762 164.687 164.617 164.364C166.965 161.932 166.934 156.871 162.942 155.238C161.69 154.726 160.573 154.726 159.629 155.071C157.203 157.617 157.271 163.09 161.622 164.4Z" fill="white"/>
<path fill-rule="evenodd" clip-rule="evenodd" d="M117.261 125.038L118.873 145.173H113.369L111.84 126.055L117.261 125.038Z" fill="#7A5740"/>
<path fill-rule="evenodd" clip-rule="evenodd" d="M130.06 187.087C133.013 195.498 132.794 200.142 131.568 204.921C132.705 203.904 133.681 202.453 134.37 200.523C136.154 195.519 134.495 188.976 132.914 184.588C132.356 185.214 131.834 186.393 130.06 187.087Z" fill="#F78547"/>
<path fill-rule="evenodd" clip-rule="evenodd" d="M138.763 193.568C137.803 193.865 134.657 194.309 137.996 194.83C145.124 195.952 147.858 202.772 147.2 207.776C142.624 207.191 138.257 209.179 138.753 209.044C143.099 207.849 153.728 212.315 155.131 217.893C155.742 220.324 155.157 223.168 153.263 226.528C150.555 231.339 150.18 230.582 151.615 231.657C156.577 235.378 157.093 239.009 156.864 240.496C159.739 240.355 161.628 239.5 160.48 236.52C159.634 234.318 158.622 232.977 153.686 229.356C162.535 218.743 158.283 213.192 151.124 209.456C152.418 201.499 151.479 196.417 142.494 192.399L141.007 186.821C140.412 185.934 139.838 185.329 139.562 185.626C139.395 185.809 139.598 185.313 138.941 185.313C138.294 185.313 138.033 185.491 137.521 185.491C137.292 185.491 137.532 185.579 137.078 185.579C137.078 185.84 136.723 185.418 136.723 186.023C136.4 186.023 136.822 186.19 136.901 186.378C137.605 188.079 138.763 191.924 138.763 193.568Z" fill="#FF8737"/>
<path d="M163.553 159.156C164.487 159.156 165.186 160.179 165.123 161.442C165.056 162.704 164.252 163.727 163.318 163.727C162.384 163.727 161.685 162.704 161.748 161.442C161.81 160.179 162.619 159.156 163.553 159.156Z" fill="black"/>
<path d="M177.604 160.033C178.387 160.033 178.872 160.92 178.684 162.016C178.497 163.112 177.709 163.999 176.921 163.999C176.138 163.999 175.653 163.112 175.841 162.016C176.029 160.92 176.816 160.033 177.604 160.033Z" fill="black"/>
<path fill-rule="evenodd" clip-rule="evenodd" d="M99.4269 199.234C106.638 198.436 112.482 197.966 112.482 198.185C112.482 198.404 106.638 199.234 99.4269 200.032C92.216 200.831 86.3721 201.3 86.3721 201.081C86.3721 200.857 92.216 200.032 99.4269 199.234Z" fill="black"/>
<path d="M160.662 236.718C161.361 238.847 161.189 239.849 160.307 240.773C156.983 244.268 143.803 242.035 137.657 238.508C135.601 237.329 133.984 236.228 134.615 234.683C134.876 234.052 135.951 232.534 136.833 232.179C136.833 232.179 136.175 232.429 137.86 233.692C138.977 234.553 141.649 236.301 145.045 237.36C151.886 239.484 161.043 239.933 160.662 236.718Z" fill="white"/>
<path fill-rule="evenodd" clip-rule="evenodd" d="M183.099 148.418C183.407 149.869 183.469 151.319 183.38 152.759C183 158.369 180.589 162.663 179.279 165.553C178.361 167.583 178.528 168.068 179.196 167.317C179.707 168.632 180.104 170.813 179.645 171.914C174.771 175.765 168.072 175.368 162.431 173.646C156.097 171.455 148.26 167.202 144.957 161.29C143.345 157.795 140.266 159.798 141.753 162.934C143.846 167.317 146.663 171.069 150.806 173.641C153.911 175.571 157.673 177.012 162.155 177.794C160.104 178.264 156.645 178.989 152.262 179.986C152.215 179.996 152.173 180.012 152.137 180.038C150.076 180.095 148.046 180.2 146.136 179.782C144.571 179.443 143.094 178.739 141.758 177.319C140.819 176.323 140.219 175.185 139.823 173.975C139.202 172.081 139.061 170.004 138.972 167.974C138.826 165.042 138.936 162.078 139.191 159.115C139.327 157.502 140.005 153.495 140.261 150.338C140.897 142.46 140.13 145.554 139.327 150.427C138.857 153.281 138.429 156.141 138.143 159.021C137.84 162.031 137.694 165.047 137.803 168.032C137.892 170.171 138.033 172.357 138.68 174.356C139.129 175.733 139.823 177.022 140.887 178.154C142.416 179.772 144.101 180.575 145.891 180.956C148.51 181.514 151.349 181.128 154.187 181.17C157.417 181.207 160.558 181.389 163.741 181.421C165.108 181.436 166.475 181.421 167.863 181.358C169.585 181.28 171.307 181.243 172.877 180.747C173.952 180.408 174.959 179.855 175.851 178.942C176.383 178.394 176.78 177.752 177.088 177.059C177.526 176.072 177.797 174.992 178.074 173.985V173.975C178.836 173.557 179.571 173.056 180.271 172.477C180.38 172.389 180.427 172.258 180.422 172.128C180.918 170.15 180.453 168.423 179.754 166.586C179.853 166.435 179.958 166.268 180.067 166.091C182.311 162.313 184.429 157.294 184.507 152.817C184.534 151.21 184.335 149.603 183.871 148.011C184.763 147.39 185.358 146.436 185.598 145.256C186.068 142.955 185.144 139.731 182.321 136.657C177.777 131.721 171.865 129.086 165.437 130.088C164.205 129.452 163.016 128.773 161.774 128.215C160.85 127.803 159.89 127.459 158.867 127.239C156.994 126.853 154.678 126.728 152.429 127.015C144.153 128.064 141.962 132.791 140.751 139.058C139.76 144.197 140.021 145.142 140.95 142.011C144.873 144.354 152.277 145.105 156.102 142.835C156.154 142.804 156.206 142.773 156.259 142.741C157.975 146.185 161.095 147.51 164.012 147.171C166.673 146.858 169.209 145.147 170.43 142.324C170.675 142.564 170.926 142.804 171.171 143.06C174.035 145.982 176.597 147.636 178.711 148.35C180.37 148.914 181.779 148.909 182.88 148.523C182.947 148.481 183.026 148.45 183.099 148.418ZM115.09 153.427C115.597 162.84 116.348 165.491 116.087 154.147C116.03 151.58 115.936 149.034 115.706 146.477C114.48 132.744 114.913 150.114 115.09 153.427ZM63.8365 185.506C63.5756 185.516 63.3512 185.699 63.2886 185.955C60.9145 196.056 58.2743 206.09 55.7229 216.145C55.6863 216.28 55.7072 216.421 55.775 216.541C72.7745 243.627 72.5553 242.578 56.8134 216.207C59.4014 206.429 61.6763 196.453 64.2017 186.67C66.174 190.28 68.7046 193.202 71.1726 196.458C81.5455 209.8 82.4586 209.617 72.1223 195.733C69.7899 192.675 67.1028 189.722 65.0574 186.456C102.343 184.494 100.512 183.946 63.8365 185.506ZM191.818 272.95C195.24 273.775 197.421 273.989 194.797 272.116C191.024 269.423 187.461 266.929 183.725 264.143C178.518 260.256 177.75 260.261 182.765 264.325C185.744 266.741 189.151 268.787 191.838 271.119C193.602 272.074 193.487 272.439 189.162 271.197C172.22 266.329 185.139 271.343 191.818 272.95ZM184.664 252.356C184.669 252.351 184.674 252.34 184.674 252.335L187.915 247.044C188.056 246.809 188.014 246.502 187.81 246.314C187.81 246.314 180.991 240.073 173.649 233.389C170.42 230.447 167.075 227.425 164.2 224.785C162.092 222.85 160.224 221.122 158.826 219.787C158.841 219.615 158.852 219.448 158.852 219.275C158.987 214.36 155.852 210.948 152.063 209.153C153.201 205.099 152.528 200.549 150.42 197.376C156.514 195.717 161.174 191.094 163.381 184.723C163.417 184.614 163.412 184.504 163.365 184.405C164.81 184.4 166.23 184.395 167.597 184.384C173.315 184.342 178.152 184.233 180.432 184.05C181.121 183.993 181.601 183.925 181.826 183.857C182.05 183.789 182.17 183.68 182.233 183.607C182.274 183.56 182.337 183.461 182.389 183.294C182.441 183.116 182.514 182.751 182.603 182.219C182.885 180.476 183.349 176.902 183.897 172.211C185.332 159.887 186.485 147.432 187.962 135.123C189.151 125.199 187.951 127.359 187.043 135.061C185.368 149.211 183.991 163.758 182.029 177.575C181.726 179.975 181.492 181.728 181.335 182.563C181.325 182.626 181.309 182.694 181.299 182.751C180.933 182.819 180.281 182.871 179.405 182.928C175.382 183.179 166.751 183.304 158.106 183.351C151.573 183.388 145.03 183.377 140.47 183.33C140.36 183.184 140.167 183.122 139.99 183.195C139.917 183.221 139.859 183.268 139.812 183.325C136.942 183.294 134.97 183.242 134.459 183.179C134.198 183.148 133.921 183.085 133.645 183.012C133.191 182.892 132.805 182.819 132.497 182.798C132.33 182.381 132.158 181.979 131.98 181.593C130.159 177.554 130.785 180.622 131.406 182.49C133.321 188.235 135.278 195.128 133.488 201.149C132.293 205.214 127.243 208.068 123.418 206.137C119.296 204.06 118.941 196.604 119.76 191.71C119.948 190.593 119.526 190.113 119.15 191.564C117.412 198.295 118.879 205.339 123.157 207.384C127.545 209.482 133.28 206.048 134.641 201.488C136.202 196.202 134.892 189.075 132.826 183.638C133.003 183.701 133.201 183.758 133.42 183.821C133.739 183.909 134.052 183.982 134.349 184.019C134.876 184.087 136.922 184.155 139.885 184.217C140.24 185.637 141.08 189.383 141.701 191.606C142.291 193.714 142.682 194.455 142.27 190.536C142.129 189.211 141.435 186.049 140.824 184.233C146.47 184.337 154.886 184.416 162.624 184.4C162.619 184.41 162.614 184.426 162.609 184.436C160.334 190.28 155.7 194.914 149.851 196.583C148.839 195.326 147.561 194.35 146.053 193.813C144.649 193.312 144.101 193.531 145.197 194.032C150.008 196.234 152.93 202.871 151.072 208.715C149.679 208.172 148.234 207.854 146.856 207.718C140.741 207.113 145.369 208.443 146.647 208.647C151.636 209.429 157.845 212.706 157.699 219.244C157.699 219.322 157.693 219.395 157.693 219.474C157.657 219.562 157.652 219.661 157.683 219.75C157.49 223.074 155.825 225.928 153.989 228.902C147.957 225.5 148.474 226.7 153.77 230.123C156.514 231.897 159.854 234.224 160.36 237.678C160.375 237.804 160.443 237.908 160.542 237.976C160.448 238.085 160.422 238.242 160.474 238.388C160.715 239.019 160.756 239.531 160.626 239.953C160.474 240.444 160.088 240.793 159.598 241.065C158.074 241.9 155.57 241.952 154.265 242.061C151.672 242.291 146.736 241.513 142.478 240.136C139.525 239.176 136.885 237.95 135.675 236.484C135.012 235.685 134.986 235.064 135.288 234.501C135.575 233.963 136.081 233.483 136.577 232.982C139.056 230.457 138.252 229.403 139.035 226.252C139.463 224.514 139.995 222.761 140.647 221.065C143.225 215.132 142.077 215.581 140.078 219.985C137.469 220.345 134.276 220.282 131.192 219.896C120.251 218.514 114.699 213.265 114.72 201.525C114.85 192.738 117.95 188.031 119.677 184.249C120.23 183.038 119.99 182.48 119.019 183.977C116.76 187.473 115.002 191.752 114.13 196.062C111.715 193.886 104.389 188.151 102.756 186.805C99.0667 184.045 95.3726 182.292 101.19 186.904C106.721 191.162 111.673 195.66 113.89 197.376C113.666 198.77 113.546 200.163 113.53 201.519C113.4 213.729 119.625 219.672 131.088 220.94C134.067 221.269 137.12 221.274 139.682 220.888C139.003 222.557 138.44 224.279 137.981 225.991C136.875 230.134 138.236 229.466 135.106 232.784C134.516 233.41 134.047 234.068 133.916 234.798C133.791 235.518 133.963 236.327 134.741 237.266C136.066 238.852 138.894 240.251 142.113 241.263C146.538 242.651 151.667 243.34 154.349 243.063C155.737 242.917 158.408 242.776 160.021 241.853C160.715 241.456 161.226 240.924 161.429 240.214C161.596 239.64 161.57 238.946 161.231 238.101C161.2 238.018 161.142 237.95 161.069 237.908C161.137 237.824 161.174 237.715 161.163 237.6C160.824 233.875 157.709 231.177 154.698 229.346C155.81 227.645 156.608 226.351 157.542 224.274C158.053 223.131 158.455 221.978 158.669 220.83C161.862 223.977 167.111 228.954 172.251 233.723C174.823 236.113 177.375 238.445 179.608 240.48C183.036 243.606 185.728 246.027 186.662 246.867L183.73 251.777C180.412 256.801 177.051 261.805 174.255 266.767C169.679 264.805 164.19 262.859 158.424 261.226C158.226 261.117 153.18 262.88 153.071 263.078C152.904 263.371 156.999 262.327 156.833 262.614C151.432 271.896 145.421 279.457 139.791 289.256C139.677 289.449 136.368 290.279 136.562 290.393C136.661 290.456 139.577 290.419 139.682 290.388C139.76 290.571 142.625 293.446 142.833 293.618C114.871 302.092 108.782 305.561 143.819 294.667L146.595 297.197C148.395 301.418 150.801 312.647 159.582 318.694C163.073 321.209 165.635 322.149 170.31 322.665C170.43 322.681 170.55 322.639 170.633 322.561C170.733 322.702 170.811 322.827 170.879 322.926C171.004 323.114 171.26 323.166 171.447 323.041C171.635 322.916 171.687 322.66 171.562 322.472C170.868 321.397 168.327 317.614 166.647 314.64C166.125 313.717 165.687 312.871 165.416 312.219C165.384 312.136 165.353 312.063 165.322 311.99C166.877 312.527 171.917 314.494 177.234 316.545C179.326 317.354 181.46 318.167 183.448 318.919C185.869 319.832 188.066 320.646 189.694 321.236C190.91 321.674 191.807 321.982 192.24 322.112C192.418 322.164 192.538 322.19 192.595 322.196C192.908 322.227 193.059 322.06 193.112 321.987C193.148 321.94 193.258 321.778 193.221 321.486C193.2 321.309 193.127 320.933 193.018 320.432C191.75 314.588 188.353 302.822 191.071 316.195C191.452 318.063 191.833 319.863 192.026 320.891C191.551 320.724 190.889 320.474 190.08 320.171C188.468 319.566 186.282 318.721 183.871 317.797C181.888 317.04 179.749 316.226 177.657 315.433C171.557 313.127 165.797 310.993 165.097 310.837C165.04 310.816 164.79 310.722 164.701 310.722C164.555 310.722 164.435 310.763 164.346 310.831C164.236 310.91 164.143 311.03 164.122 311.223C164.096 311.452 164.153 311.797 164.31 312.23C164.57 312.95 165.113 313.988 165.791 315.141C167.132 317.427 168.995 320.187 170.112 321.82C165.734 321.204 162.311 319.545 159.05 317.129C155.178 314.745 149.736 305.441 147.451 296.623C145.849 295.136 141.868 291.416 140.449 290.195C140.397 290.148 140.334 290.117 140.271 290.101C145.651 281.356 153.42 270.848 158.017 262.259C171.233 265.379 184.643 272.752 195.606 280.464C198.554 282.535 201.1 284.508 202.744 286.078C205.394 288.614 204.606 286.6 202.404 284.638C199.968 282.462 196.378 279.854 192.454 277.219C185.269 272.382 177.307 267.587 175.006 267.107L184.664 252.356ZM77.5435 215.357C77.0217 216.625 76.5052 217.898 75.9886 219.171C74.7885 222.14 73.6041 225.109 72.4145 228.083C69.8734 234.449 67.9481 239.567 65.2244 245.86C65.1566 246.006 65.1879 246.173 65.2818 246.288C65.2453 246.402 65.2609 246.533 65.3392 246.642C69.216 252.523 73.7972 258.591 77.3765 264.289C77.387 264.305 77.3974 264.325 77.4131 264.341L75.3468 275.518C75.3155 275.705 75.3834 275.898 75.5295 276.024L86.1789 286.209C86.3824 286.381 86.6798 286.391 86.8937 286.235C86.8937 286.235 88.4851 285.082 90.8905 283.334C96.1396 290.706 100.392 296.488 103.309 300.323C108.62 307.315 109.513 307.868 103.961 299.89C100.001 294.202 96.1031 288.004 92.0123 282.52C97.6684 278.408 106.565 271.933 110.958 268.682C112.111 267.832 112.951 267.195 113.353 266.887C113.489 266.783 113.577 266.71 113.619 266.668C113.948 266.366 113.812 266.032 113.796 265.985C113.489 265.202 111.224 262.426 107.973 258.742C74.1207 220.293 75.9625 223.705 107.107 259.499C109.805 262.598 111.824 264.988 112.487 266.047C112.054 266.381 111.271 266.96 110.248 267.717C104.091 272.267 89.1165 283.182 86.5859 285.03L76.4739 275.392C76.813 273.54 78.6392 263.804 80.2776 254.318C83.6222 234.965 83.0222 233.535 79.5054 253.066L77.6531 263.089C74.7468 258.069 69.1377 250.498 66.0279 246.173C66.0227 246.162 66.0175 246.157 66.0071 246.147C68.6994 240.209 70.6509 235.45 73.1397 229.424C74.0737 227.159 74.9972 224.89 75.9104 222.615C76.8235 220.34 77.7366 218.07 78.634 215.79C86.1163 196.834 85.2501 196.672 77.5435 215.357ZM155.831 180.064C159.379 179.318 162.029 178.791 163.407 178.462C163.939 178.337 164.294 178.233 164.456 178.165C164.717 178.05 164.795 177.872 164.816 177.789C164.857 177.638 164.852 177.22 164.31 177.147C159.092 176.443 154.824 174.888 151.39 172.712C148.244 170.719 144.19 165.971 142.567 162.511C141.764 160.805 143.209 159.485 144.138 161.525C148.354 168.674 155.34 172.676 162.123 174.69C166.96 176.093 172.465 176.537 177.083 174.46C176.869 175.211 176.639 175.978 176.31 176.693C176.034 177.288 175.689 177.841 175.225 178.311C174.437 179.099 173.55 179.563 172.606 179.85C171.108 180.304 169.47 180.304 167.832 180.356C166.464 180.398 165.108 180.398 163.762 180.367C161.111 180.309 158.492 180.153 155.831 180.064ZM164.059 130.344C163.642 130.443 163.219 130.553 162.796 130.683C160.788 131.372 160.078 132.421 163.031 131.471C163.803 131.241 164.57 131.069 165.327 130.949L165.384 130.975C165.557 131.059 165.755 131.012 165.875 130.871C171.87 130.12 177.328 132.687 181.533 137.346C184.027 140.112 184.914 142.96 184.481 145.011C184.236 146.169 183.553 147.041 182.483 147.411C181.58 147.724 180.432 147.677 179.076 147.213C177.088 146.529 174.698 144.954 172.011 142.199C171.625 141.802 171.228 141.426 170.842 141.051C173.748 130.041 160.188 131.732 169.334 141.239C169.386 141.296 169.444 141.348 169.496 141.406C168.536 144.082 166.277 145.731 163.861 146.023C161.294 146.336 158.601 145.11 157.114 142.027C157.636 141.52 158.017 140.941 158.299 140.352C158.873 139.157 159.024 137.92 159.06 137.19C159.217 134.111 157.396 133.365 156.212 134.257C155.439 134.836 154.766 136.297 155.053 138.593C155.205 139.814 155.481 140.894 155.852 141.844C155.768 141.901 155.685 141.953 155.596 142.011C152.001 144.187 144.769 143.42 141.164 141.176C141.351 140.492 141.555 139.673 141.779 138.729C143.084 133.167 145.025 129.259 152.57 128.199C154.688 127.912 156.869 127.965 158.643 128.293C159.603 128.466 160.501 128.758 161.372 129.113C162.29 129.478 163.172 129.911 164.059 130.344ZM107.144 181.311C110.499 181.551 112.309 181.786 114.877 182.026C120.006 182.506 119.63 181.713 114.772 180.987C112.388 180.633 110.906 180.445 107.499 180.487C105.015 167.573 103.471 150.756 101.133 136.454C99.9329 129.113 99.8338 133.527 100.251 136.908C101.869 149.921 104.352 168.272 106.752 180.961C106.752 180.977 106.758 180.987 106.758 181.003C106.799 181.17 106.956 181.301 107.144 181.311ZM135.059 122.189C134.934 125.94 134.829 129.687 134.746 133.438C134.688 135.943 134.636 138.442 134.594 140.946C134.542 144.072 134.501 147.197 134.448 150.328C134.396 153.453 134.339 156.579 134.255 159.704C134.114 165.052 133.916 170.406 133.577 175.759C133.561 175.984 133.734 176.182 133.958 176.198C134.182 176.213 134.381 176.041 134.396 175.817C134.965 168.668 135.32 161.52 135.534 154.377C135.612 151.695 135.669 149.013 135.716 146.331C135.758 143.649 135.795 140.967 135.81 138.285C135.841 132.942 135.826 127.594 135.878 122.246C138.816 122.502 145.891 123.243 153.931 124.114C158.231 124.578 162.802 125.079 167.164 125.57C190.122 128.152 196.122 128.064 167.273 124.537C162.009 123.895 156.436 123.237 151.411 122.669C144.044 121.839 137.845 121.202 135.518 121.009C134.876 120.957 133.54 121.124 131.73 121.469C128.547 122.069 123.83 123.18 118.837 124.359C117.522 124.667 95.4195 129.692 99.6198 129.201C105.558 128.554 111.882 127.031 117.72 125.731C120.981 125.006 124.169 124.286 126.95 123.681C130.723 122.841 133.723 122.23 135.059 122.189ZM156.718 141.066C157.015 140.712 157.25 140.331 157.433 139.945C157.933 138.885 158.048 137.795 158.08 137.148C158.121 136.172 157.949 135.504 157.631 135.139C157.406 134.889 157.104 134.873 156.843 135.071C156.253 135.525 155.878 136.684 156.112 138.458C156.232 139.433 156.441 140.294 156.718 141.066ZM169.861 140.039C163.657 133.162 171.176 132.353 169.861 140.039V140.039ZM178.163 168.241C179.065 163.889 175.204 162.663 171.656 162.809C169.141 162.913 167.649 163.91 170.863 163.743C173.775 163.597 177.855 164.077 176.999 167.99C176.07 172.232 170.873 171.121 168.098 169.477C166.214 168.361 166.83 168.846 168.066 170.119C170.847 172.994 177.161 173.093 178.163 168.241ZM99.672 220.282C101.91 222.761 104.3 225.385 106.732 228.041C109.085 230.619 111.485 233.222 113.833 235.763C120.861 243.35 147.978 271.239 124.122 245.302C121.263 242.192 118.038 238.649 114.689 234.976C111.574 231.563 108.36 228.036 105.26 224.65C102.61 221.759 100.042 218.962 97.6893 216.411C77.9975 195.086 86.6433 205.861 99.672 220.282ZM123.752 276.352C104.05 311.979 102.881 316.639 124.055 278.017C138.205 252.215 135.982 254.24 123.752 276.352ZM146.627 255.351C177.062 249.825 207.283 242.354 150.895 253.368C148.281 253.88 145.672 254.407 143.063 254.939C127.295 258.685 141.685 256.363 146.627 255.351ZM195.428 308.452C188.734 307.309 187.069 307.784 195.256 309.381C197.959 309.908 201.622 311.009 203.615 311.301C205.425 311.562 205.775 311.202 204.241 308.228C201.747 303.281 198.903 298.465 196.206 293.628C187.487 277.965 202.378 307.252 203.187 308.765C204.1 310.122 203.985 310.367 203.542 310.315C201.517 310.059 197.912 308.88 195.428 308.452ZM172.272 222.975C173.498 222.312 174.562 221.43 175.512 220.423C179.431 216.265 182.358 209.873 183.067 204.264C183.558 200.387 180.516 197.23 177.02 198.639C173.587 199.177 170.811 201.149 168.922 204.008C166.084 197.81 162.729 195.691 156.671 197.794C153.921 198.749 152.544 200.471 156.947 198.65C160.271 197.272 165.181 196.99 168.181 205.271C167.607 206.361 167.075 207.525 166.751 208.715C165.452 213.291 165.99 213.395 167.571 208.782C168.536 205.667 171.52 202.036 174.442 200.476C172.214 202.735 168.468 212.357 168.259 215.639C168.134 217.595 168.233 218.216 168.682 216.62C169.976 212.002 172.741 202.761 176.519 200.22C179.613 198.123 182.3 200.836 181.878 204.113C181.189 209.544 178.533 215.68 174.834 219.802C173.973 220.762 173.002 221.613 171.875 222.26C171.677 222.369 171.604 222.62 171.719 222.818C171.823 223.016 172.074 223.084 172.272 222.975ZM171.155 223.1C171.38 223.074 171.541 222.87 171.52 222.646C171.494 222.422 171.291 222.26 171.067 222.281C167.477 222.578 159.901 213.99 157.756 211.224C155.862 208.782 155.34 209.278 157.433 212.252C159.723 215.508 166.6 223.716 171.155 223.1ZM125.109 172.086C125.26 171.564 125.463 171.053 125.677 170.557C127.984 165.256 124.008 163.638 121.654 166.774C121.247 167.312 120.913 168.047 120.647 168.867C119.859 166.472 117.157 166.352 116.353 169.999C115.44 174.147 116.494 179 119.374 182.161C119.52 182.334 119.781 182.355 119.953 182.203C120.126 182.057 120.146 181.796 119.995 181.624C117.585 178.655 116.578 174.048 117.324 170.328C117.877 167.573 119.646 167.729 119.901 170.035C119.995 170.875 119.912 171.804 119.933 172.629C119.886 173.281 119.88 173.881 119.922 174.387C119.969 174.919 120.094 175.284 120.35 175.29C120.559 175.295 120.788 174.898 120.82 174.298C120.929 172.102 121.154 169.044 122.62 167.296C124.227 165.381 126.256 166.263 124.582 170.077C124.195 170.959 123.867 171.882 123.71 172.832C123.423 174.596 123.82 176.547 125.234 174.371L126.001 172.853C129.418 167.176 131.892 169.159 129.043 174.361C126.204 179.532 127.587 178.66 129.825 174.804C133.9 167.771 128.829 166.018 125.109 172.086ZM121.039 182.193C120.882 182.031 120.621 182.021 120.46 182.177C120.298 182.334 120.287 182.595 120.444 182.756C122.067 183.941 123.919 184.076 125.578 183.727C127.848 183.247 129.758 181.838 130.212 180.925C130.832 179.673 130.425 179.714 129.465 180.45C128.991 180.815 127.618 182.208 125.338 182.626C124.148 182.84 122.719 182.793 121.039 182.193Z" fill="black"/>
<path fill-rule="evenodd" clip-rule="evenodd" d="M158.768 151.077C160.866 150.148 163.376 152.079 163.297 152.329C163.23 152.543 161.262 151.442 159.248 152.277C157.495 153.002 156.88 154.703 156.681 154.583C156.446 154.443 156.926 151.891 158.768 151.077Z" fill="#1F1E21"/>
<path fill-rule="evenodd" clip-rule="evenodd" d="M178.93 152.632C181.053 153.503 181.403 156.65 181.163 156.764C180.959 156.864 180.39 154.682 178.392 153.806C176.655 153.044 175.001 153.78 174.948 153.555C174.891 153.295 177.067 151.87 178.93 152.632Z" fill="#1F1E21"/>
<mask id="mask0_0_1" style="mask-type:alpha" maskUnits="userSpaceOnUse" x="304" y="0" width="142" height="193">
<rect x="304" width="142" height="193" fill="#D9D9D9"/>
</mask>
<g mask="url(#mask0_0_1)">
<path d="M555.305 128.404C607.887 78.0868 609.722 -5.3295 559.405 -57.9112C509.087 -110.493 425.671 -112.328 373.089 -62.0108C320.507 -11.6933 318.672 71.7231 368.989 124.305C419.307 176.887 502.723 178.722 555.305 128.404Z" fill="#FF8D2F"/>
<g filter="url(#filter2_d_0_1)">
<path d="M400.186 129.346C453.271 164.684 524.952 150.298 560.29 97.2133C595.628 44.1288 581.242 -27.552 528.157 -62.8901C475.073 -98.2283 403.392 -83.842 368.054 -30.7574C332.716 22.3271 347.102 94.0078 400.186 129.346Z" fill="white"/>
<path d="M400.186 129.346C453.271 164.684 524.952 150.298 560.29 97.2133C595.628 44.1288 581.242 -27.552 528.157 -62.8901C475.073 -98.2283 403.392 -83.842 368.054 -30.7574C332.716 22.3271 347.102 94.0078 400.186 129.346Z" fill="url(#paint0_linear_0_1)"/>
</g>
<path fill-rule="evenodd" clip-rule="evenodd" d="M581.093 7.66736C586.284 12.9739 586.003 56.8826 580.606 54.6646C575.19 52.4343 565.811 27.3675 566.508 19.9269C567.332 11.3021 575.889 2.37913 581.093 7.66736ZM530.474 112.022C477.223 115.409 433.299 83.4195 455.549 50.9095C477.817 18.4118 536.489 16.7305 549.71 18.9494C564.214 21.3872 583.712 108.654 530.474 112.022ZM562.948 -17.7354C560.907 -13.2785 548.606 -15.9679 540.661 -23.3722C532.758 -30.801 522.848 -37.0809 522.698 -41.4631C522.424 -49.6294 536.252 -53.5632 545.8 -49.9564C555.361 -46.3678 564.99 -22.1923 562.948 -17.7354ZM536.184 -64.0246C538.868 -65.7537 551.842 -59.7077 551.569 -57.907C551.277 -56.1185 547.701 -55.1151 542.909 -57.0894C538.079 -59.0881 533.695 -62.4299 536.184 -64.0246ZM428.802 -87.2616C444.495 -95.4264 479.646 -102.878 511.682 -85.4374C534.2 -73.1968 530.713 -49.8486 509.578 -38.8298C488.473 -27.8171 437.41 -56.7072 427.122 -62.6573C416.839 -68.5769 421.822 -83.607 428.802 -87.2616ZM397.857 84.5176C392.192 83.8134 388.088 80.0502 392.821 75.0849C397.908 69.7471 407.561 74.428 405.921 78.2804C404.264 82.1206 403.497 85.2584 397.857 84.5176ZM330.919 46.6721C325.729 16.3839 353.185 -6.79114 366.942 -7.44125C380.699 -8.09136 393.861 42.5465 387.745 68.2951C381.646 94.056 337.88 87.2861 330.919 46.6721ZM354.457 105.195C346.862 93.5301 374.483 79.9556 392.536 87.347C410.565 94.775 440.446 137.296 435.654 145.289C430.868 153.312 374.405 135.949 354.457 105.195ZM477.053 152.994C471.886 147.81 508.977 139.667 516.716 147.383C524.424 155.105 488.126 164.12 477.053 152.994ZM537.317 -76.6473C526.875 -83.5983 515.824 -88.9192 504.445 -92.6347C503.95 -92.8053 503.456 -92.9758 502.949 -93.1281C502.339 -93.323 501.698 -93.5118 501.087 -93.7067C446.017 -110.222 384.415 -90.1614 350.361 -40.3951C310.126 21.7533 327.241 104.896 389.048 146.041C450.855 187.185 534.151 170.912 575.974 109.794C616.239 47.6399 599.142 -35.4903 537.317 -76.6473Z" fill="#B13D2F"/>
<path fill-rule="evenodd" clip-rule="evenodd" d="M539.293 -79.6151C476.973 -121.101 392.835 -104.199 351.361 -41.8974C351.02 -41.3845 350.691 -40.8898 350.38 -40.383C310.145 21.7653 327.26 104.908 389.067 146.053C450.874 187.197 534.17 170.924 575.992 109.806C576.34 109.324 576.669 108.829 577.011 108.316C618.485 46.0147 601.595 -38.1411 539.293 -79.6151ZM582.582 51.6968C577.166 49.4665 567.787 24.3997 568.484 16.9591C569.32 8.31595 577.877 -0.606996 583.081 4.68123C588.273 9.98778 587.979 53.9148 582.582 51.6968ZM547.789 -52.9425C557.331 -49.3662 566.948 -25.1723 564.906 -20.7153C562.865 -16.2584 550.564 -18.9479 542.619 -26.3522C534.716 -33.7809 524.805 -40.0609 524.656 -44.4431C524.4 -52.5972 538.228 -56.531 547.789 -52.9425ZM538.172 -67.0107C540.857 -68.7398 553.831 -62.6938 553.557 -60.8931C553.265 -59.1046 549.689 -58.1012 544.897 -60.0755C540.056 -62.0559 535.671 -65.3977 538.172 -67.0107ZM502.956 -93.0977C503.463 -92.9455 503.969 -92.7932 504.452 -92.6043C507.828 -91.4408 510.917 -90.0452 513.665 -88.3747C535.597 -75.0961 532.695 -52.7859 511.56 -41.767C490.455 -30.7544 439.392 -59.6445 429.104 -65.5946C418.822 -71.5141 423.816 -86.5626 430.784 -90.1989C443.89 -97.0192 477.548 -100.441 501.082 -93.658C501.729 -93.518 502.339 -93.3231 502.956 -93.0977ZM399.833 81.5497C394.168 80.8455 390.064 77.0825 394.797 72.1171C399.884 66.7793 409.537 71.4602 407.897 75.3126C406.24 79.1529 405.473 82.2906 399.833 81.5497ZM332.907 43.6859C327.717 13.3978 355.173 -9.77724 368.93 -10.4274C382.687 -11.0775 395.85 39.5604 389.733 65.3091C383.622 91.0882 339.856 84.3183 332.907 43.6859ZM356.433 102.227C348.838 90.5622 376.46 76.9878 394.513 84.3792C412.541 91.8072 442.422 134.328 437.63 142.321C432.856 150.326 376.393 132.963 356.433 102.227ZM479.041 150.008C473.874 144.824 510.966 136.681 518.704 144.397C526.4 152.137 490.102 161.152 479.041 150.008ZM532.45 109.054C479.199 112.441 435.275 80.4517 457.525 47.9417C479.793 15.444 538.465 13.7627 551.686 15.9816C566.19 18.4193 585.688 105.686 532.45 109.054Z" fill="url(#paint1_radial_0_1)"/>
<g opacity="0.58">
<path opacity="0.58" fill-rule="evenodd" clip-rule="evenodd" d="M408.924 50.7764C409.528 50.4647 410.553 49.7987 411.329 50.1827C411.945 50.4875 411.915 50.9696 412.141 51.5432C412.618 52.8124 412.918 54.2282 411.24 54.8031C410.496 55.0477 409.293 54.7495 408.689 54.1884C408.157 53.676 407.656 52.2848 408.303 51.7106L408.924 50.7764Z" fill="#C4B0FF"/>
<path opacity="0.58" fill-rule="evenodd" clip-rule="evenodd" d="M447.392 155.058C447.454 155.363 447.527 155.65 447.588 155.955C447.277 156.145 447.033 156.511 446.667 156.426C446.417 156.365 446.032 155.95 445.965 155.694C445.842 155.322 445.927 154.956 446.257 154.699C446.641 154.4 447.038 154.558 447.343 154.814L447.392 155.058Z" fill="#C4B0FF"/>
<path opacity="0.58" fill-rule="evenodd" clip-rule="evenodd" d="M409.685 73.9387C409.313 74.2197 409.081 74.4883 409.197 74.9887C409.344 75.7211 409.906 76.2273 410.638 76.1597C411.639 76.0858 413.14 75.4194 413.555 74.3999C413.805 73.7466 413.517 72.6299 412.73 72.5816C412.345 72.5636 411.784 72.5335 411.405 72.6253C410.74 72.7905 410.179 73.3158 409.758 73.8288L409.685 73.9387Z" fill="#C4B0FF"/>
<path opacity="0.58" fill-rule="evenodd" clip-rule="evenodd" d="M432.48 44.7793C432.065 44.8467 431.858 44.8407 431.583 45.1339C431.254 45.4698 430.973 45.8117 430.949 46.3244C430.926 47.3132 431.701 48.4907 432.367 49.1983C432.972 49.8387 433.582 50.1129 434.449 50.0818C435.426 50.0446 436.249 49.7205 436.896 48.9877C437.585 48.2304 437.816 47.4856 437.444 46.4971C437.138 45.6856 436.655 44.7032 436.014 44.1177C435.409 43.5566 434.847 43.4471 434.042 43.5453C433.352 43.5885 432.284 43.8822 432.48 44.7793Z" fill="#C4B0FF"/>
<path opacity="0.58" fill-rule="evenodd" clip-rule="evenodd" d="M436.641 51.3556C436.805 51.148 436.921 50.855 437.214 50.9708C437.574 51.1048 437.947 51.7759 438.014 52.1116C438.07 52.3862 437.972 52.9295 437.765 53.1616C437.594 53.3387 437.301 53.3816 437.063 53.3817C436.654 53.4003 436.318 53.2297 436.153 52.8819C436.043 52.65 435.756 52.0887 436.012 51.8627L436.641 51.3556Z" fill="#C4B0FF"/>
<path opacity="0.58" fill-rule="evenodd" clip-rule="evenodd" d="M437.212 11.3404C436.926 11.7312 436.81 11.9449 436.78 12.4271C436.75 13.1473 436.927 13.8735 437.202 14.5325C437.575 15.3623 438.162 16.2286 438.98 16.6675C439.566 16.9784 440.512 16.7092 440.927 16.2451C441.433 15.6832 441.792 14.627 441.767 13.8702C441.681 12.4115 440.917 10.7398 439.598 10.0204C438.066 9.1853 436.602 11.3041 437.212 11.3404Z" fill="#C4B0FF"/>
<path opacity="0.58" fill-rule="evenodd" clip-rule="evenodd" d="M440.064 20.5617C439.996 20.3054 440.008 20.049 440.087 19.8109C440.35 19.8535 440.582 19.6641 440.881 19.731C441.149 19.8041 441.388 20.042 441.516 20.286C441.699 20.646 441.712 21.0244 441.511 21.3664C441.285 21.7449 441.078 21.739 440.687 21.6904C440.394 21.654 440.302 21.6723 440.15 21.3855C440.07 21.2269 439.948 20.934 439.929 20.7631L440.064 20.5617Z" fill="#C4B0FF"/>
<path opacity="0.58" fill-rule="evenodd" clip-rule="evenodd" d="M382.069 5.06061C383.546 4.11357 384.626 3.72225 386.377 3.67224C387.94 3.62847 390.125 3.99931 391.572 4.56596C392.915 5.08996 394.747 6.30941 395.45 7.59677C396.244 9.1038 396.722 10.8491 397.4 12.4111C398.018 13.8267 398.83 14.9492 399.161 16.5176C399.442 17.9212 399.37 19.4593 399.06 20.8389C398.555 22.9877 397.281 25.9732 395.378 27.244C393.639 28.3865 392.662 27.789 391.093 26.6914C388.846 25.1427 387.922 21.884 387.609 19.2963C387.443 17.9964 387.473 16.8001 387.057 15.5186C386.567 14.0297 385.993 12.5896 385.418 11.1496C384.88 9.8133 384.08 8.59316 383.688 7.19572C383.431 6.54892 382.765 4.65121 382.069 5.06061Z" fill="#C4B0FF"/>
<path opacity="0.58" fill-rule="evenodd" clip-rule="evenodd" d="M398.09 31.3498C397.267 32.2293 396.718 32.4983 397.133 33.4623C397.415 34.1518 397.909 34.4811 398.648 34.5233C399.417 34.5594 401.406 34.1918 401.711 33.4165C402.363 31.762 398.748 29.2498 397.779 31.1426L398.09 31.3498Z" fill="#C4B0FF"/>
<path opacity="0.58" fill-rule="evenodd" clip-rule="evenodd" d="M428.17 116.62C430.64 113.267 436.205 111.579 440.222 111.979C445.972 112.555 450.498 117.709 452.619 122.743C454.416 126.954 454.096 132.239 451.505 136.093C450.81 137.137 449.877 137.864 449.157 138.865C448.614 139.641 448.352 140.153 447.314 139.886C444.744 139.259 441.923 136.984 440.079 135.227C438.039 133.288 435.755 131.159 434.288 128.755C432.981 126.59 432.027 124.21 430.762 122.02C430.108 120.897 429.491 119.957 429.118 118.731C428.959 118.096 427.988 117.053 428.17 116.62Z" fill="#C4B0FF"/>
</g>
</g>
<defs>
<filter id="filter0_d_0_1" x="137.615" y="137.975" width="244.632" height="180.07" filterUnits="userSpaceOnUse" color-interpolation-filters="sRGB">
<feFlood flood-opacity="0" result="BackgroundImageFix"/>
<feColorMatrix in="SourceAlpha" type="matrix" values="0 0 0 0 0 0 0 0 0 0 0 0 0 0 0 0 0 0 127 0" result="hardAlpha"/>
<feOffset/>
<feGaussianBlur stdDeviation="11"/>
<feComposite in2="hardAlpha" operator="out"/>
<feColorMatrix type="matrix" values="0 0 0 0 1 0 0 0 0 0.419608 0 0 0 0 0 0 0 0 0.4 0"/>
<feBlend mode="normal" in2="BackgroundImageFix" result="effect1_dropShadow_0_1"/>
<feBlend mode="normal" in="SourceGraphic" in2="effect1_dropShadow_0_1" result="shape"/>
</filter>
<filter id="filter1_d_0_1" x="0" y="106.287" width="134.962" height="155.463" filterUnits="userSpaceOnUse" color-interpolation-filters="sRGB">
<feFlood flood-opacity="0" result="BackgroundImageFix"/>
<feColorMatrix in="SourceAlpha" type="matrix" values="0 0 0 0 0 0 0 0 0 0 0 0 0 0 0 0 0 0 127 0" result="hardAlpha"/>
<feOffset/>
<feGaussianBlur stdDeviation="11"/>
<feComposite in2="hardAlpha" operator="out"/>
<feColorMatrix type="matrix" values="0 0 0 0 1 0 0 0 0 0.419608 0 0 0 0 0 0 0 0 0.4 0"/>
<feBlend mode="normal" in2="BackgroundImageFix" result="effect1_dropShadow_0_1"/>
<feBlend mode="normal" in="SourceGraphic" in2="effect1_dropShadow_0_1" result="shape"/>
</filter>
<filter id="filter2_d_0_1" x="344.691" y="-82.2522" width="238.96" height="238.96" filterUnits="userSpaceOnUse" color-interpolation-filters="sRGB">
<feFlood flood-opacity="0" result="BackgroundImageFix"/>
<feColorMatrix in="SourceAlpha" type="matrix" values="0 0 0 0 0 0 0 0 0 0 0 0 0 0 0 0 0 0 127 0" result="hardAlpha"/>
<feOffset dy="4"/>
<feGaussianBlur stdDeviation="2"/>
<feComposite in2="hardAlpha" operator="out"/>
<feColorMatrix type="matrix" values="0 0 0 0 0 0 0 0 0 0 0 0 0 0 0 0 0 0 0.25 0"/>
<feBlend mode="normal" in2="BackgroundImageFix" result="effect1_dropShadow_0_1"/>
<feBlend mode="normal" in="SourceGraphic" in2="effect1_dropShadow_0_1" result="shape"/>
</filter>
<linearGradient id="paint0_linear_0_1" x1="522.479" y1="-66.6698" x2="394.509" y2="125.566" gradientUnits="userSpaceOnUse">
<stop stop-color="#FFE769"/>
<stop offset="1" stop-color="#FFE176"/>
</linearGradient>
<radialGradient id="paint1_radial_0_1" cx="0" cy="0" r="1" gradientUnits="userSpaceOnUse" gradientTransform="translate(475.702 -39.014) rotate(33.6515) scale(196.788 196.788)">
<stop stop-color="#DE5A00"/>
<stop offset="1" stop-color="#E26800"/>
</radialGradient>
</defs>
</svg>
